<svg xmlns="http://www.w3.org/2000/svg" xmlns:xlink="http://www.w3.org/1999/xlink" width="321" height="567" viewBox="0 0 321 567"><defs><style>.a{fill:#fff;stroke:#707070;}.b{clip-path:url(#a);}.c{fill:#f77678;opacity:0.45;}</style><clipPath id="a"><rect class="a" width="321" height="567" transform="translate(0 0)"/></clipPath></defs><g class="b"><path class="c" d="M435.378,0a50,50,0,0,1,43.016,24.512l125,210.959a50,50,0,0,1,0,50.976l-125,210.959a50,50,0,0,1-43.016,24.512H183.115A50,50,0,0,1,140.1,497.406L15.1,286.447a50,50,0,0,1,0-50.976l125-210.959A50,50,0,0,1,183.115,0Z" transform="translate(560.514 -26.574) rotate(90)"/></g></svg>