<svg xmlns="http://www.w3.org/2000/svg" width="25.834" height="31" viewBox="0 0 25.834 31"><defs><style>.a{fill:#fff;}</style></defs><path class="a" d="M27.834,22.743c-1.015,2.945-4.055,8.16-7.186,8.217-2.077.04-2.745-1.231-5.119-1.231S12.414,30.921,10.45,31C7.128,31.126,2,23.472,2,16.8c0-6.132,4.273-9.171,8.006-9.227,2-.036,3.893,1.35,5.114,1.35S18.642,7.253,21.057,7.5a7.244,7.244,0,0,1,5.669,3.07C21.894,13.722,22.647,20.319,27.834,22.743ZM21.089,0c-3.65.147-6.629,3.977-6.213,7.144C18.25,7.407,21.487,3.625,21.089,0Z" transform="translate(-2)"/></svg>