<svg xmlns="http://www.w3.org/2000/svg" xmlns:xlink="http://www.w3.org/1999/xlink" width="414" height="1008" viewBox="0 0 414 1008"><defs><style>.a{fill:#fff;stroke:#707070;}.b{clip-path:url(#a);}.c{fill:url(#b);}.d{fill:#f24043;}.e{fill:url(#c);}.f{fill:url(#d);}</style><clipPath id="a"><rect class="a" width="414" height="1008" transform="translate(0 3575)"/></clipPath><linearGradient id="b" x1="0.5" x2="0.5" y2="1" gradientUnits="objectBoundingBox"><stop offset="0" stop-color="#fff"/><stop offset="1" stop-color="#f8979a"/></linearGradient><linearGradient id="c" x1="0.086" y1="0.129" x2="0.572" y2="0.93" gradientUnits="objectBoundingBox"><stop offset="0" stop-color="#f7b9b9"/><stop offset="1" stop-color="#fd5154"/></linearGradient><linearGradient id="d" x1="0.392" y1="0.984" x2="0.445" y2="0.516" gradientUnits="objectBoundingBox"><stop offset="0" stop-color="#fa787e"/><stop offset="1" stop-color="#dc3c3f"/></linearGradient></defs><g class="b" transform="translate(0 -3575)"><g transform="translate(422 -144.143)"><rect class="c" width="690.948" height="447.28" transform="translate(-432.237 3738.217)"/><rect class="d" width="202.778" height="193.599" transform="translate(-141.641 4241.132)"/><path class="e" d="M92.219,0,768.253,12.717c29.813,0,46.225,49.675,46.225,73.9L698.7,360.5c0,24.227,50.138,61.643,20.325,61.643H53.981C24.168,422.143,0,402.5,0,378.276V52.194C0,27.966,62.406,0,92.219,0Z" transform="matrix(0.966, 0.259, -0.259, 0.966, -479.902, 3719.143)"/><path class="f" d="M71.636,777.16c1.576-1,323.846-22.546,323.846-22.546,19.875,0,176.194-87.316,176.194-110.65l.566-489.366c-2.763-25.614-15.391-42.142-36.554-49.336L195.555-20.16c-19.875,0-136.939,137.246-136.939,160.581L.023,708.3C-.916,742.751,27.347,779.016,71.636,777.16Z" transform="translate(156.275 4616.105) rotate(150)"/></g></g></svg>