<svg xmlns="http://www.w3.org/2000/svg" width="28.416" height="31" viewBox="0 0 28.416 31"><defs><style>.a{fill:#fff;fill-rule:evenodd;}</style></defs><path class="a" d="M1.738,30.566,15.34,17l4.795,4.78L3.964,30.748a2.018,2.018,0,0,1-1.979-.014l-.248-.168ZM13.968,15.634,1,28.565V2.7L13.968,15.634Zm8.1-5.344L28.407,13.8a1.932,1.932,0,0,1,0,3.394L21.9,20.8l-5.186-5.17,5.359-5.344ZM1.594.559A1.961,1.961,0,0,1,1.986.266,2.018,2.018,0,0,1,3.964.252L20.308,9.313,15.34,14.266,1.594.559Z" transform="translate(-1 0)"/></svg>