<svg xmlns="http://www.w3.org/2000/svg" xmlns:xlink="http://www.w3.org/1999/xlink" width="1911" height="1129" viewBox="0 0 1911 1129"><defs><style>.a{fill:#fff;stroke:#707070;}.b{clip-path:url(#a);}.c{fill:url(#b);}.d{fill:url(#c);}.e{fill:url(#d);}</style><clipPath id="a"><rect class="a" width="1911" height="1129"/></clipPath><linearGradient id="b" x1="0.349" y1="0.163" x2="0.543" y2="1.152" gradientUnits="objectBoundingBox"><stop offset="0" stop-color="#ff5253"/><stop offset="1" stop-color="#8c3075"/></linearGradient><linearGradient id="c" x1="0.16" y1="0.544" x2="0.436" y2="0.973" gradientUnits="objectBoundingBox"><stop offset="0" stop-color="#f8555b"/><stop offset="1" stop-color="#b83865"/></linearGradient><linearGradient id="d" x1="0.5" x2="0.5" y2="1" gradientUnits="objectBoundingBox"><stop offset="0" stop-color="#b53262"/><stop offset="1" stop-color="#fb5363"/></linearGradient></defs><g class="b"><path class="c" d="M100,0H1639c55.229,0,628.014,1047.318,628.014,1102.546l-511.988,141.259c-74.692,20.211-164.161,49.526-225.8,53.9L100,1375A100,100,0,0,1,0,1275V100A100,100,0,0,1,100,0Z" transform="translate(-252.179 -427.066) rotate(10)"/><path class="d" d="M100,0H1639c55.229,0,100,52.564,100,117.405l-.2,1321.467c0,64.841-66.07,96.5-118.564,114.641L712.7,1906.815c-52.8,14.549-123.346,15.557-151.081-56.88L0,117.405C0,52.564,44.772,0,100,0Z" transform="translate(1074.589 -1044.101) rotate(30)"/><path class="e" d="M372.691-6.22,957,0a100,100,0,0,1,100,100L851.971,1137.485c0,55.229-68.389,106.909-123.617,106.909L100,1230A100,100,0,0,1,0,1130L171.592,86.84c4.912-30.166,39.3-60.392,98.218-73.207C271.177,14.271,372.691-6.22,372.691-6.22Z" transform="matrix(-0.94, -0.342, 0.342, -0.94, 1984.276, 1221.823)"/></g></svg>