<svg xmlns="http://www.w3.org/2000/svg" xmlns:xlink="http://www.w3.org/1999/xlink" width="277.4" height="408.338" viewBox="0 0 277.4 408.338"><defs><style>.a{fill:#f7ac85;}.b{fill:#8f786c;opacity:0.3;}.c{fill:#7ba7e1;}.d{fill:#eef3f7;}.aa,.ab,.ad,.ak,.al,.bb,.be,.e,.j,.k,.t,.u{fill:none;}.e{stroke:#7ba7e1;}.al,.e,.t,.u{stroke-width:1.5px;}.f{fill:#5f94db;}.g{fill:#fff;}.ao,.h{fill:#3c3c3c;}.h{opacity:0.22;}.i{fill:#a2684a;}.ak,.am,.j,.k{stroke:#000;}.aa,.ab,.ak,.am,.bb,.j,.k{stroke-linecap:round;}.ab,.j{stroke-width:2px;}.l{fill:url(#a);}.m{fill:#d4a885;}.n{fill:url(#b);}.ae,.o{fill:#e06e7e;}.p{fill:#f09b9b;}.q{fill:#292929;}.ap,.r{fill-rule:evenodd;}.s{fill:#f79471;}.t{stroke:#f79471;}.u{stroke:#eebaa7;}.v{fill:#fefefe;}.w{fill:#a2a2a2;}.x{fill:#ebecec;}.y{fill:#343434;}.z{fill:#2e6870;}.aa,.ab{stroke:#e06e7e;}.aa{stroke-width:3px;}.ac{fill:#eebaa7;}.ad,.al{stroke:#fff;}.ae{opacity:0.15;}.af{fill:#8a4f53;}.ag{fill:#753738;}.ah{fill:url(#c);}.ai{fill:#cfd8ec;}.aj{fill:#c0cbe4;}.ak{stroke-width:1.7px;}.am,.bb{stroke-linejoin:round;}.an{opacity:0.16;}.ap{fill:#343333;}.aq{fill:#21d0c3;}.ar{fill:#0f7986;}.as{fill:#4d4d4d;}.at{fill:#076673;}.au{fill:#666;}.av{fill:#dbeaff;}.aw{fill:#edf4ff;}.ax{fill:#c3ddff;}.ay{fill:#8a4e53;}.az{fill:#4c2243;}.ba{fill:#f1ddd7;}.bb{stroke:#f1ddd7;stroke-width:0.84px;}.bc{fill:#e9e9e9;}.bd{stroke:none;}</style><linearGradient id="a" x1="0.223" y1="0.248" x2="0.929" y2="0.63" gradientUnits="objectBoundingBox"><stop offset="0" stop-color="#dab79d"/><stop offset="0.532" stop-color="#efd4c0"/><stop offset="1" stop-color="#d5ae8f"/></linearGradient><linearGradient id="b" x1="0.256" y1="1" x2="1.478" y2="-1.89" gradientUnits="objectBoundingBox"><stop offset="0" stop-color="#d4a885"/><stop offset="1" stop-color="#fee3ce"/></linearGradient><linearGradient id="c" x1="0.108" y1="0.398" x2="0.916" y2="0.367" gradientUnits="objectBoundingBox"><stop offset="0" stop-color="#141414"/><stop offset="0.525" stop-color="#272727"/><stop offset="1" stop-color="#111"/></linearGradient></defs><g transform="translate(-1178.6 -2351.456)"><g transform="translate(1226.166 2351.456)"><path class="a" d="M213.441,237.856l-3.521,17.632-11.72,4.03,6.941,109.623,44.615-.252,2.062-111.437-7.495-2.368L240.5,237.1l-27.061.756Z" transform="translate(-147.258 -162.05)"/><path class="b" d="M117.309,197.159l-1.15,6.671s3.5,8.99,13.51,8.223,18.094-8.223,18.094-8.223l-1.309-8.59Z" transform="translate(-52.126 -115.554)"/><path class="a" d="M190.6,145.672s5.862,28.758,26.481,28.81,28.562-27.581,28.781-28.319c2.24.785,8.174-8.65,3.4-17.184-1.363-2.452-4.961-1.552-4.961-1.552-1.878-4.69,1.1-16.816-8.637-19.1-4.493-1.052-23.131-7.7-28.489-6.018-8.771,2.755-16.578,10.567-16.578,10.567s-.195,1.745-1.266,15.037c0,0-3.817-2.338-5.037,1.832S183.835,146.162,190.6,145.672Z" transform="translate(-139.247 -86.12)"/><path class="c" d="M204.167,316.436s3.6,15.259,23.132,15.259,21.965-15.259,21.965-15.259L239.812,446.5l-14.773-8.164S206.632,425.8,196.27,422.4Z" transform="translate(-146.864 -221.242)"/><path class="d" d="M286,275.5l34,9.255c8.8,2.716,17.918,8.243,18.17,17.6v138.24l-26.52-15.162V346.623l-11.434,72.394-25.3-14.773s.352-9.786,0-9.786c0,0-2.771-14.092,0-43.832S286,275.5,286,275.5Z" transform="translate(-185.115 -180.927)"/><g transform="translate(103.481 131.082)"><path class="e" d="M52.1,72.059c.839-1.319,1.232-2.8,3.672-2.876,2.19.031,2.7,1.976,3.448,3.177s2.631,2.745.915,4.754-2.659.25-4.364.193-2.829,1.644-4.652-.193S51.258,73.377,52.1,72.059Z" transform="translate(-45.839 -61.386)"/><g class="e" transform="translate(10.483 0)"><ellipse class="bd" cx="2.288" cy="3.146" rx="2.288" ry="3.146"/><ellipse class="be" cx="2.288" cy="3.146" rx="1.538" ry="2.396"/></g><g class="e" transform="matrix(0.94, 0.342, -0.342, 0.94, 16.059, 4.618)"><ellipse class="bd" cx="2.002" cy="2.574" rx="2.002" ry="2.574"/><ellipse class="be" cx="2.002" cy="2.574" rx="1.252" ry="1.824"/></g><g class="e" transform="translate(5.523 9.455) rotate(160)"><ellipse class="bd" cx="2.002" cy="2.574" rx="2.002" ry="2.574"/><ellipse class="be" cx="2.002" cy="2.574" rx="1.252" ry="1.824"/></g><g class="e" transform="translate(4.763 0)"><ellipse class="bd" cx="2.288" cy="3.146" rx="2.288" ry="3.146"/><ellipse class="be" cx="2.288" cy="3.146" rx="1.538" ry="2.396"/></g></g><path class="f" d="M114.859,246.914l.389,3.221a27.976,27.976,0,0,0,16.495,4.61c9.886-.334,15.773-3.833,15.773-3.833l.389-3.5s-6.22,5.609-16.884,5.276S114.859,246.914,114.859,246.914Z" transform="translate(-51.458 -142.116)"/><g transform="translate(0 93.176)"><path class="g" d="M291.515,274.879l15.768,23.657-17.906-.3,11.116,5.935L277.22,345.084l7.1-72.44Z" transform="translate(-186.929 -272.644)"/><path class="g" d="M157.5,274.8l-34.153,8.651c-8.853,2.565-18.963,9.2-19.365,18.554L96.393,394.16h30.554l3.689-48.639V394.16s22.425-.1,36.156,0c0,0,2.324-10.964,0-40.8s-9.3-78.556-9.3-78.556Z" transform="translate(-96.393 -273.755)"/></g><path class="d" d="M200.023,275.6l-6.185,1.457L179,299.679l17.906.051-11.217,5.808,22.619,50.439L200.023,275.6Z" transform="translate(-137.715 -182.035)"/><path class="h" d="M-6577.421,9219.819s-1.624,2.946,1.1-3.954,5.5-10.4,10.816-10.787,4.578,6.009,15.191,10.787c8.892,4,25.788,2.56,25.788,2.56l1.471,5.775a11.265,11.265,0,0,1,3.308-.981c1.572-.136,3.046,4.536,3.046,4.536l-3.046-13.672-45.758-20.523-15.306,16.485s.066,9.188-1.439,10.449a3.941,3.941,0,0,0-1.409,3.014s.781-1.944,2.284-2.09a8.578,8.578,0,0,1,2.235,0Z" transform="translate(6628.524 -9178.671)"/><g transform="translate(57.658 34.34)"><g transform="translate(26.351 0)"><g transform="translate(0 0)"><path class="i" d="M1011.039,499.419a1.045,1.045,0,0,1-.574-.171,15.414,15.414,0,0,0-10.286-1.991,1.06,1.06,0,0,1-.418-2.078,17.3,17.3,0,0,1,11.853,2.289,1.059,1.059,0,0,1-.574,1.95Z" transform="translate(-998.91 -494.945)"/></g></g><g transform="translate(5.426 10.97)"><ellipse cx="2.825" cy="2.865" rx="2.825" ry="2.865" transform="translate(0 0)"/></g><g transform="translate(29.717 10.97)"><ellipse cx="2.825" cy="2.887" rx="2.825" ry="2.887" transform="translate(0 0)"/></g><g transform="translate(0 1.943)"><g transform="translate(0 0)"><path class="i" d="M930.827,499.417a1.06,1.06,0,0,1-.577-1.95,17.291,17.291,0,0,1,11.853-2.289,1.06,1.06,0,0,1-.419,2.078,15.372,15.372,0,0,0-10.283,1.991A1.054,1.054,0,0,1,930.827,499.417Z" transform="translate(-929.766 -494.942)"/><path class="j" d="M0,0S.369,3.888.778,7.076s.156,4.743.855,5.676,1.886.836,3.11.467a8.185,8.185,0,0,0,2.333-1.244" transform="translate(19.984 13.69) rotate(7)"/><path class="j" d="M0,.778S5.019,3.3,9.63,3.11A19.167,19.167,0,0,0,18.442,0" transform="translate(14.523 35.805) rotate(-7)"/><path class="k" d="M42.952,83.056l5.313-.648" transform="translate(-21.107 -41.875)"/></g></g></g><path class="l" d="M188.661,113a2.457,2.457,0,0,1,3.291,1.483c1,2.447.348,10.034.79,8.363h1.135s-.151-13.613,2.195-20.067,6.017-7.789,8.4-8.08,4.424.113,8.048,2.508,2.9,2.333,6.938,5.572,15.111,6.6,26.756,5.441l.772,16.977c.448-.442,1.648,0,1.648,0s.192-10.158,1.295-10.715,2.34.283,3.084,1.531h0s4.855-16.45-1.59-29.978c-.179-.3,1.436,2.4,1.09.713-.605-2.954-5.233-6.074-5.969-6.815a23.632,23.632,0,0,0-11.893-6.248c-1.23-.275,4.693,1.322,2.876,0s-9.4-1.834-10.728-2c-20.279-2.539-23.236,6.73-23.236,6.73a19,19,0,0,0-12.614,9.266C186.425,95.715,188.661,113,188.661,113Z" transform="translate(-142.454 -71.245)"/><path class="m" d="M747.866,9357.279a25.41,25.41,0,0,0,4.568-4.742c1.766-2.558,3.719-6.143,3.719-6.143a77.082,77.082,0,0,1,0,9.408,79.455,79.455,0,0,1-1.477,9.253s-1.62-2.684-3.11-1.32c-1.231,1.359-1.322,10.33-1.322,10.33H748.3l-.429-16.786" transform="translate(-644.098 -9320.242)"/><path class="n" d="M639.764,9307.959s-1.628,5.846-.408,9.895,5.287,6.3,5.287,6.3a9.1,9.1,0,0,0-10.759,4.7c-3.662,6.98-3.888,23.229-3.888,23.229h-1.264s.249-6.115-.5-8.189a2.673,2.673,0,0,0-3.369-1.686s-1.843-15.812,1.905-24.352S639.764,9307.959,639.764,9307.959Z" transform="translate(-578.628 -9300.484)"/></g><g transform="translate(1321.224 2404.2)"><path class="o" d="M-6577.413,9219.687a45.194,45.194,0,0,1,4.065-10.522,66.63,66.63,0,0,1,7.4-10.307,39.486,39.486,0,0,0,15.386,12.774c8.561,3.983,23.726,6.183,23.726,6.183l1.749,6.229s.79-2.4,2.3-2.539,3.75,2,3.75,2l-6.054-13.537-40.86-16.4-14.732,16.4-2.522,11.646a2.074,2.074,0,0,1,1.815-1.306,12.7,12.7,0,0,1,3.973.726Z" transform="translate(6617.297 -9179.236)"/><path class="p" d="M184.065,131.867c-.518,5.4-.187,15.523,6.354,15.054,0,0,6.972,24.833,26.386,25.559,18.416.181,26.315-22.742,27.021-25.089,2.165.751,7.9-8.28,3.288-16.449-1.318-2.347-4.794-1.485-4.794-1.485v-4.846c-24.7,2.394-40.759-16.868-40.759-16.868-9.169,9.138-11.331,9.461-12.366,22.184,0,0-.516-.479-2.446-.526C186.091,129.446,185.325,129.221,184.065,131.867Z" transform="translate(-150.168 -87.17)"/><path class="o" d="M-6577.51,9219.819a45.58,45.58,0,0,1,4.064-10.576,35.307,35.307,0,0,1,7.4-9.006,44.45,44.45,0,0,0,15.386,11.485c8.56,4,23.724,6.216,23.724,6.216l1.747,6.262a5.166,5.166,0,0,1,2.834-1.648c1.513-.136,3.654,2.488,3.654,2.488l-6.488-15-40.857-16.485-14.731,16.485-2.615,13.607s.575-2.338,2.021-2.483a31.446,31.446,0,0,1,3.859,0Z" transform="translate(6617.398 -9177.474)"/><path class="q" d="M199.729,157.1l.916-10.837c-9.249-9.108-14.085-22.864-14.085-22.864-6.291.7-8.826-16.667-4.6-17.277a6.171,6.171,0,0,1,3.239.329c.939-13.427,5.368-15.18,12.254-22.316,0,0,15.728,19.687,40.376,17.293l.376,5.634c1.174-1.127,3.62-1.091,5.4,1.819a16.888,16.888,0,0,1,.907,7.416c-.747,4.035-3.66,7.314-5.4,7.643-.516,1.643-4.575,13.967-12.838,22.37l20.079,7.766s1.149-38.343-1.843-61.325-14.57-28.066-31.359-29.03-33.214,7.753-35.8,26.626-1.216,63.729-1.216,63.729l16.5,2.115Z" transform="translate(-145.997 -63.649)"/><path class="r" d="M1023.011,552.322l-.626,3.351a38.141,38.141,0,0,0-1.645,4.64c-.765,2.849.64,13,3.784,17.96s3.5,5.471,3.444,5.188c-3.412-.979-15.8,1.112-18.386,0s-1.288-9.385-1.288-9.385a36.2,36.2,0,0,0,7.464-8.4,63.443,63.443,0,0,0,5.52-12.13Z" transform="translate(-927.85 -493.347)"/><path class="r" d="M1057,546.448l1.064,8.389s1.572,8.554,2.186,12.445c.765,4.847-2.186,14.938-2.186,14.938s4.69.553,8.982,1.21c3.6.551,6.788,1.376,7.621-1.21,1.26-3.914,1.15-9.958,1.15-9.958a16.742,16.742,0,0,1-2.955-2.8,74.946,74.946,0,0,1-5.054-6.065c-.987-1.589-6.065-12.363-6.065-12.363a3.3,3.3,0,0,1-2.721-.855A11.274,11.274,0,0,1,1057,546.448Z" transform="translate(-1021.423 -491.068)"/><path class="p" d="M212.425,237.8l-3.286,16.432L198.2,257.992l6.479,102.16,41.643-.235,1.925-103.85-7-2.207L237.684,237.1l-25.258.7Z" transform="translate(-157.73 -158.288)"/><path class="s" d="M192.257,342.3c18.216,10.592,36.949,12.846,56.667.62l-.657,91.5a101.475,101.475,0,0,1-56.667-1.127Z" transform="translate(-154.229 -230.04)"/><path class="d" d="M276.479,275.5l31.737,8.639c8.216,2.535,15.587,7.418,15.822,16.15,0,0,.834,57.058-1.758,61.092-7.516,9.379-23.132,26.119-23.132,26.119l-20.67-24.3,22.03-13.737,2.722-28.833-12.361,85.9L259.934,387.5h-2.177l2.177-31.99Z" transform="translate(-189.389 -178.659)"/><g transform="translate(83.765 131.582)"><path class="t" d="M1593.2,3695.888c6.449-.071,6.387-5.351,6.236-6.733a5.832,5.832,0,0,0-1.063-2.977,14.005,14.005,0,0,0-2.055-2.693,6.739,6.739,0,0,0-.567-3.473,3.7,3.7,0,0,0-2.551-1.346" transform="translate(-1577.05 -3676.044)"/><path class="t" d="M1594.9,3670.795a8.94,8.94,0,0,1,.838-1.727,13.989,13.989,0,0,1,2.055-2.693,6.736,6.736,0,0,1,.567-3.473,3.7,3.7,0,0,1,2.552-1.347l1.567-2.622" transform="translate(-1584.77 -3658.933)"/><path class="u" d="M1489,3748.2v1.993" transform="translate(-1485.368 -3736.338)"/><path class="u" d="M1489,3748.2v1.993" transform="translate(-1477.395 -3736.338)"/><path class="u" d="M1489,3748.2v1.993" transform="translate(-1482.71 -3736.338)"/><path class="u" d="M1489,3748.2v1.993" transform="translate(-1474.737 -3736.338)"/><path class="u" d="M1489,3748.2v1.993" transform="translate(-1480.052 -3736.338)"/><path class="t" d="M1547.9,3778a8.124,8.124,0,0,0,2.438,3.016,7.846,7.846,0,0,0,3.694,1.037" transform="translate(-1537.77 -3762.178)"/><path class="u" d="M1487.871,3757.4H1478.3v3.933H1496V3757.4Z" transform="translate(-1478.3 -3745.511)"/></g><g transform="translate(0 96.512)"><path class="g" d="M279.982,275l4.178,1.69L298.433,298.1l-16.714-.282,10.376,5.54-27.408,48.5L279.982,275Z" transform="translate(-193.174 -274.906)"/><path class="g" d="M161.953,274.8l-31.878,8.075c-8.263,2.394-15.728,7.136-16.1,15.869L112,386.209h21.44l3.443-45.4,5.571,45.4s20.984-.094,33.8,0v-32.28l-14.3-79.129Z" transform="translate(-112 -274.8)"/></g><path class="d" d="M197.826,274.3l-4.977,1.925L179,297.07l16.714.047-10.47,5.352L211.8,353.18,197.826,274.3Z" transform="translate(-147.544 -178.023)"/><g transform="translate(7.718 138.316)"><path class="v" d="M343.313,399.556a8.621,8.621,0,1,0-9.953-7.042A8.62,8.62,0,0,0,343.313,399.556Z" transform="translate(-333.236 -373.707)"/><path class="w" d="M343.858,399.678a8.124,8.124,0,1,0-9.39-6.62A8.136,8.136,0,0,0,343.858,399.678Z" transform="translate(-312.556 -381.556)"/><path class="x" d="M347.336,400.2a4.5,4.5,0,1,0-5.211-3.662,4.516,4.516,0,0,0,5.211,3.662Z" transform="translate(-316.645 -385.644)"/><path class="v" d="M354.152,385.45l-1.972.329-1.08-6.15,1.972-.329,1.08,6.15Z" transform="translate(-323.977 -379.3)"/><path class="v" d="M346.966,400.64a4.264,4.264,0,1,0-4.93-3.474A4.3,4.3,0,0,0,346.966,400.64Z" transform="translate(-316.04 -386.133)"/></g><path class="o" d="M-6547.628,9375.2l6.055-15.524s8.286,0,14.273-2.66,8.871-3.679,8.871-3.679l-1.089-4.332a32.7,32.7,0,0,1-12.384,4.332c-6.659.71-13.471-3.879-13.471-3.879l-3.13,13.494-.908,1.452Z" transform="translate(6599.741 -9268.257)"/><g transform="translate(48.099 35.176)"><g transform="translate(22.782 0.026)"><g transform="translate(0 0)"><path class="y" d="M1010.231,499.151a.975.975,0,0,1-.536-.159,14.387,14.387,0,0,0-9.6-1.858.989.989,0,0,1-.391-1.939c.075-.016,1.775-.195,1.775-.195a38.909,38.909,0,0,0,4.127,1.112c1.38.251,4.64.9,4.64.9s.308.183.522.322a.989.989,0,0,1-.536,1.82Z" transform="translate(-998.91 -495)"/></g></g><g transform="translate(4.158 8.452)"><ellipse class="z" cx="2.637" cy="3.568" rx="2.637" ry="3.568" transform="translate(0 0)"/></g><g transform="translate(25.923 8.946)"><ellipse class="z" cx="2.637" cy="3.568" rx="2.637" ry="3.568" transform="translate(0 0)"/></g><g transform="translate(0 0)"><g transform="translate(0 0)"><path class="y" d="M930.756,499.119a.99.99,0,0,1-.538-1.82,16.139,16.139,0,0,1,11.064-2.136.989.989,0,0,1-.391,1.939,14.348,14.348,0,0,0-9.6,1.858A.983.983,0,0,1,930.756,499.119Z" transform="translate(-929.766 -494.942)"/></g></g></g><path class="aa" d="M141.359,132.2a4.155,4.155,0,0,1,2.509-1.361,4.753,4.753,0,0,1,2.656,1.361" transform="translate(-76.962 -70.625)"/><path class="ab" d="M0,.523A24.073,24.073,0,0,0,8.238,2.09,19.239,19.239,0,0,0,15.777,0" transform="translate(59.984 71.869) rotate(-2)"/><g transform="matrix(0.998, -0.07, 0.07, 0.998, 78.021, 96.018)"><path class="ac" d="M5.9.13A270.592,270.592,0,0,1,4.667,28C3.193,43.416,0,61.783,0,61.783l5.9,1.425S10.064,30.6,10.857,11.459C11.276,1.343,11,1.232,10.335.8A6.533,6.533,0,0,0,5.9.13Z" transform="translate(0 0)"/><line class="ad" x2="1.458" transform="translate(5.832 2.463)"/><line class="ad" x2="1.458" transform="translate(5.832 10.238)"/><line class="ad" x2="1.458" transform="translate(5.443 18.014)"/><line class="ad" x2="1.458" transform="translate(4.86 25.789)"/><line class="ad" x2="1.458" transform="translate(2.916 41.34)"/><line class="ad" x2="1.458" transform="matrix(0.998, 0.07, -0.07, 0.998, 0.486, 56.84)"/><line class="ad" x2="1.458" transform="translate(3.888 33.564)"/><line class="ad" x2="1.458" transform="matrix(1, 0.017, -0.017, 1, 1.944, 49.102)"/><line class="ad" x2="2.187" transform="translate(5.832 6.351)"/><line class="ad" x2="2.187" transform="translate(5.734 14.126)"/><line class="ad" x2="2.187" transform="translate(5.248 21.901)"/><line class="ad" x2="2.187" transform="translate(3.402 37.452)"/><line class="ad" x2="2.187" transform="translate(1.458 52.945) rotate(3)"/><line class="ad" x2="2.187" transform="translate(4.374 29.677)"/><line class="ad" x2="2.187" transform="translate(2.43 45.227)"/><line class="ad" x2="2.187" transform="translate(0.015 60.588) rotate(10)"/></g><g transform="matrix(-0.961, -0.276, 0.276, -0.961, 39.092, 158.092)"><path class="ac" d="M5.9,63.079A270.6,270.6,0,0,0,4.667,35.205C3.193,19.792,0,1.425,0,1.425L5.9,0s4.169,32.612,4.962,51.749c.419,10.116.142,10.227-.522,10.661A6.533,6.533,0,0,1,5.9,63.079Z" transform="translate(0 0)"/><line class="ad" x2="1.458" transform="translate(5.831 60.745)"/><line class="ad" x2="1.458" transform="translate(5.831 52.97)"/><line class="ad" x2="1.458" transform="translate(5.443 45.195)"/><line class="ad" x2="1.458" transform="translate(4.86 37.419)"/><line class="ad" x2="1.458" transform="translate(2.916 21.868)"/><line class="ad" x2="1.458" transform="matrix(0.998, -0.07, 0.07, 0.998, 0.486, 6.368)"/><line class="ad" x2="1.458" transform="translate(3.888 29.644)"/><line class="ad" x2="1.458" transform="matrix(1, -0.017, 0.017, 1, 1.944, 14.106)"/><line class="ad" x2="2.187" transform="translate(5.831 56.858)"/><line class="ad" x2="2.187" transform="translate(5.734 49.082)"/><line class="ad" x2="2.187" transform="translate(5.248 41.307)"/><line class="ad" x2="2.187" transform="translate(3.402 25.756)"/><line class="ad" x2="2.187" transform="translate(1.458 10.263) rotate(-3)"/><line class="ad" x2="2.187" transform="translate(4.374 33.531)"/><line class="ad" x2="2.187" transform="translate(2.43 17.981)"/><line class="ad" x2="2.187" transform="matrix(0.985, -0.174, 0.174, 0.985, 0.015, 2.62)"/></g><circle class="ae" cx="5" cy="5" r="5" transform="translate(78.776 52.8)"/><ellipse class="ae" cx="5.5" cy="5" rx="5.5" ry="5" transform="translate(45.776 52.8)"/></g><g transform="translate(1289.956 2503.433)"><path class="af" d="M213.441,237.856l-3.521,17.632-11.72,4.03,6.941,109.623,44.615-.252,2.062-111.437-7.495-2.368L240.5,237.1l-27.061.756Z" transform="translate(-151.33 -166.295)"/><path class="ag" d="M117.309,196.943l-1.15,5.922a13.535,13.535,0,0,0,13.51,7.3c10.011-.68,18.094-7.3,18.094-7.3l-1.309-7.625Z" transform="translate(-56.198 -119.799)"/><path class="ah" d="M83.308,82.5S71.426,40.193,112.247,40s28.5,42.5,28.5,42.5Z" transform="translate(-38.484 -39.999)"/><path class="af" d="M190.411,150.317s5.7,28.758,25.733,28.81,27.755-27.581,27.969-28.319c2.176.785,7.943-8.65,3.306-17.184-1.325-2.452-4.82-1.552-4.82-1.552-1.135-2.917.511-18.935-6.876-20.2s-10.031,2.177-18.175,1.944c-8.977.151-11.371-4.568-18.564-1.944s-9.3,14.256-9.8,20.689c0,0-3.709-2.338-4.895,1.832S183.834,150.807,190.411,150.317Z" transform="translate(-142.862 -95.009)"/><path class="ai" d="M207.518,330.044V313.035l17.083,20.24,19.516-20.24,9.11,117.123c-9.1,2.58-17.705-2.218-27.413-2.218-11.217,0-22.07-3.016-32.431-6.415Z" transform="translate(-149.452 -223.739)"/><path class="ai" d="M265.619,273.16l36.65,10.37c8.7,2.71,17.705,8.223,17.954,17.556,0,0,5.3,57.862,4,70.821s-8.035,68.424-8.035,68.424l-19.957-11.923V365.169l-2.822-29.547-4.371,88.947-33.628-19.049s-14.425-9.136-14.773-9.136c0,0-1.088-30.083,7.987-57.984S265.619,273.16,265.619,273.16Z" transform="translate(-171.148 -183.969)"/><g transform="translate(0 89.32)"><path class="ai" d="M162.051,273.45l-34.4,9.307c-8.853,2.565-18.963,9.2-19.365,18.554L104.772,356.5l25.853,15.551,4.318-27.225v29.752l41.581,23.5,3.225-43.528-16.792-81.1Z" transform="translate(-104.772 -273.45)"/></g><path class="aj" d="M.375-3.55,1.931-1.7l1.458-1.49L2.824,105.156l-3.11-1.777Z" transform="translate(73.235 111.167)"/><g transform="translate(53.674 32.743)"><g transform="translate(25.856 1.562) rotate(-7)"><g transform="translate(0 0)"><path d="M11.78,4.443a.99.99,0,0,1-.558-.169A14.583,14.583,0,0,0,1.229,2.32,1.022,1.022,0,0,1,.02,1.494,1.066,1.066,0,0,1,.829.245,16.374,16.374,0,0,1,12.345,2.492a1.074,1.074,0,0,1,.3,1.464A1.036,1.036,0,0,1,11.78,4.443Z"/></g></g><g transform="translate(5.273 8.321)"><ellipse cx="2.745" cy="2.865" rx="2.745" ry="2.865" transform="translate(0 0)"/></g><g transform="translate(28.878 8.321)"><ellipse cx="2.745" cy="2.887" rx="2.745" ry="2.887" transform="translate(0 0)"/></g><g transform="translate(0 1.724)"><g transform="translate(0 0)"><path d="M930.8,499.418a1.021,1.021,0,0,1-.866-.485,1.079,1.079,0,0,1,.305-1.465,16.39,16.39,0,0,1,11.518-2.289,1.058,1.058,0,0,1,.8,1.247,1.028,1.028,0,0,1-1.212.831,14.57,14.57,0,0,0-9.993,1.991A1,1,0,0,1,930.8,499.418Z" transform="translate(-929.766 -494.942)"/><path class="ak" d="M0,0S.361,1.653,2.767,1.856A4.921,4.921,0,0,0,6.692.225" transform="translate(17.886 27.1) rotate(-2)"/><path class="j" d="M27.136,74.12s3.747,2.527,7.188,2.333,6.578-3.11,6.578-3.11" transform="translate(-12.904 -39.158)"/></g></g></g><path class="aj" d="M126.7,242.338l-8.164,9.428s-4.672-10.764-7.32-16.62a14.58,14.58,0,0,1,0-11.4Z" transform="translate(-53.051 -134.454)"/><path class="aj" d="M112.522,242.732l9.622,9.233s5.777-13.258,8.425-19.114,0-8.9,0-8.9Z" transform="translate(-35.862 -134.557)"/><circle class="g" cx="1.458" cy="1.458" r="1.458" transform="translate(73.52 110.8)"/><circle class="g" cx="1.458" cy="1.458" r="1.458" transform="translate(73.52 129.752)"/><circle class="g" cx="1.458" cy="1.458" r="1.458" transform="translate(73.52 148.705)"/><circle class="g" cx="1.458" cy="1.458" r="1.458" transform="translate(73.52 167.657)"/><circle class="g" cx="1.458" cy="1.458" r="1.458" transform="translate(73.52 186.61)"/><circle class="g" cx="1.458" cy="1.458" r="1.458" transform="translate(73.034 205.562)"/><g transform="translate(92.717 125.915)"><path class="al" d="M7.881,3328.358a3.887,3.887,0,0,1,.806-1.945,2.543,2.543,0,0,1,1.755-.521s.32-1.079.948-1.186,1.565.759,1.565.759a3.378,3.378,0,0,1,1.612-.427c.616.107.854.854.854.854a6.073,6.073,0,0,1,2.656.806,2.909,2.909,0,0,1,1,1.944s.818.379.948.9-.427,1.186-.427,1.186a1.951,1.951,0,0,1,1,1.091,3.194,3.194,0,0,1-.332,1.707,7.992,7.992,0,0,1-.237,2.988,3.736,3.736,0,0,1-1.517,1.8,3.638,3.638,0,0,1-.854,1.849,3.255,3.255,0,0,1-1.849.664,2.4,2.4,0,0,1-1.233.948,2.853,2.853,0,0,1-1.612-.332,1.806,1.806,0,0,1-1.233.332c-.533-.154-.9-.948-.9-.948a6.773,6.773,0,0,1-2.608-.948,3.328,3.328,0,0,1-1.138-1.9s-.759-.308-.9-.854a2.2,2.2,0,0,1,.332-1.328,1.737,1.737,0,0,1-.948-1.043,3.549,3.549,0,0,1,.332-1.755,13.455,13.455,0,0,1,.616-3.462A1.7,1.7,0,0,1,7.881,3328.358Z" transform="translate(-5.527 -3324.698)"/><path class="al" d="M85.729,3332.866a3.72,3.72,0,0,1,.241,1.28,5.007,5.007,0,0,1-.241,1.518c-.114.427-.477.385-.446,1.233s.569,1.162.569,2.158-.492.942-.569,1.826a4.132,4.132,0,0,0,.261,1.707,2.175,2.175,0,0,1,.569,1.328c0,.735-.616,1.067-.569,1.613s.38.438.427,1.256a8.765,8.765,0,0,1-.241,2.015" transform="translate(-78.181 -3332.14)"/><path class="al" d="M91,3381.167a2.607,2.607,0,0,0,1.5,0,2.384,2.384,0,0,0,1-1.067" transform="translate(-83.4 -3375.174)"/><path class="al" d="M91,3381.167a2.607,2.607,0,0,0,1.5,0,2.384,2.384,0,0,0,1-1.067" transform="translate(-85.712 -3367.883)"/><path class="al" d="M0,1.067a4.6,4.6,0,0,0,2.006,0A2.763,2.763,0,0,0,3.336,0" transform="translate(13.176 10.368) rotate(90)"/><path class="al" d="M0,1.067a4.6,4.6,0,0,0,2.006,0A2.763,2.763,0,0,0,3.336,0" transform="matrix(0.391, -0.921, 0.921, 0.391, 1.161, 6.226)"/><path class="al" d="M0,.119a2.214,2.214,0,0,1,1.382,0A2.335,2.335,0,0,1,2.3,1.186" transform="matrix(0.946, -0.326, 0.326, 0.946, 2.359, 5.945)"/><path class="al" d="M0,.119a2.214,2.214,0,0,1,1.382,0A2.335,2.335,0,0,1,2.3,1.186" transform="matrix(0.946, -0.326, 0.326, 0.946, 11.606, 4.077)"/></g><g transform="translate(45.749 34.95)"><g transform="translate(24.304 9.541)"><g transform="translate(0 0)"><path d="M974.484,534.983h-.015l-5.908-.045c-.412,0-.74-.136-.732-.3s.285-.31.761-.286l5.907.045c.413,0,.74.136.732.3S974.89,534.983,974.484,534.983Z" transform="translate(-967.83 -534.351)"/></g></g><g transform="translate(31.224 0)"><g transform="translate(0 0)"><g transform="translate(0)"><path d="M1001.618,526.923a9.806,9.806,0,1,1,9.439-9.8A9.633,9.633,0,0,1,1001.618,526.923Zm0-19.2a9.409,9.409,0,0,0,0,18.79,9.079,9.079,0,0,0,8.863-9.386A9.174,9.174,0,0,0,1001.618,507.72Z" transform="translate(-992.183 -507.324)"/></g></g><g transform="translate(18.55 4.65)"><path class="am" d="M1038.884,509.344s5.259-3.257,6.706-3.991" transform="translate(-1038.884 -505.353)"/></g></g><g transform="translate(0 0.486)"><g transform="translate(5.966 0)"><g transform="translate(0 0)"><path d="M1001.622,526.923a9.806,9.806,0,1,0-9.439-9.8A9.633,9.633,0,0,0,1001.622,526.923Zm0-19.2a9.409,9.409,0,0,1,0,18.79,9.079,9.079,0,0,1-8.863-9.386A9.174,9.174,0,0,1,1001.622,507.72Z" transform="translate(-992.183 -507.324)"/></g></g><g transform="translate(0 3.62)"><path class="am" d="M1045.174,510.374s-4.933-4.1-6.29-5.021" transform="translate(-1038.884 -505.353)"/></g></g></g><path class="aj" d="M11.664,0,0,19.9l6.609.769A38.646,38.646,0,0,0,12.7,11.922,68.24,68.24,0,0,0,16.977,0Z" transform="translate(125.151 256.296) rotate(-90)"/><path d="M190.012,72.557l4.665-5.6a39.616,39.616,0,0,1,3.343,11.586,48.755,48.755,0,0,1-.7,12.83,3.568,3.568,0,0,0-1.4-.467,11.394,11.394,0,0,0-2.1,0s-.68-9.253-1.633-13.84S190.012,72.557,190.012,72.557Z" transform="translate(-94.162 -53.857)"/><path d="M199.743,73.97,194.8,67.041a39.7,39.7,0,0,0-3.755,12.081,55.34,55.34,0,0,0,.257,12.295,5.824,5.824,0,0,1,1.3,0,4.117,4.117,0,0,1,1.118.34,52.387,52.387,0,0,1,1.992-10.5A23.142,23.142,0,0,1,199.743,73.97Z" transform="translate(-147.539 -54.385)"/><path class="an" d="M155.412,76.138s9.292-1.127,14.151,2.566,6.454,15.317,6.454,15.317S174.6,79.871,173.373,77.4a5.282,5.282,0,0,0-3.343-2.9,22.286,22.286,0,0,0-4.074-.468,15.862,15.862,0,0,0-3.669.468,25.078,25.078,0,0,0-3.809.516,14.6,14.6,0,0,0-3.066,1.116" transform="translate(-76.376 -57.496)"/></g><g transform="translate(1105 2343.13)"><g transform="translate(73.351 83.614)"><path class="p" d="M184.077,133.588c-.555,5.784-.2,16.631,6.807,16.128,0,0,10.082,29.324,29.491,32.644,16.737-3.068,26.971-29.626,27.727-32.141,2.319.8,8.463-8.871,3.523-17.623-1.412-2.515-5.136-1.591-5.136-1.591v-5.192c-26.466,2.565-43.667-18.072-43.667-18.072-9.823,9.79-12.139,10.136-13.248,23.767,0,0-.553-.513-2.62-.564-.706.05-1.526-.191-2.333.564Z" transform="translate(-147.761 -85.126)"/><path class="o" d="M-6577,9221.551a48.422,48.422,0,0,1,4.354-11.274,71.362,71.362,0,0,1,7.931-11.04,42.3,42.3,0,0,0,16.484,13.684c9.171,4.269,25.418,6.627,25.418,6.627l1.873,6.673s.847-2.575,2.469-2.722,4.018,2.138,4.018,2.138l-6.486-14.5-43.775-17.572-15.784,17.572-2.7,12.48a2.221,2.221,0,0,1,1.944-1.4,13.608,13.608,0,0,1,4.257.776Z" transform="translate(6619.73 -9174.722)"/><path class="ao" d="M172.757,168.751l3.42-17.2c-9.909-9.758-15.09-24.5-15.09-24.5-6.74.754-9.456-17.856-4.929-18.51a6.611,6.611,0,0,1,3.471.352c1.006-14.386,5.751-16.263,13.128-23.909,0,0,16.85,21.092,43.257,18.527l.4,6.036c1.257-1.207,3.878-1.169,5.789,1.949.2.332,1.555,4.8.972,7.945-.8,4.323-3.921,7.836-5.783,8.189-.553,1.76-4.9,14.963-13.754,23.967l3.571,16.75c9.909,3.219,41.433,15.519,51.04,18.085-.468-2.845-3.454-15.113-9.719-22.889-5.872-7.287-12.246-7.289-17.883-15.162-3.957-5.526-7.043-17.058-8.128-26.193.073-.438.283-1.15.486-1.9.161-.6.177-1.732.292-2.624a17.725,17.725,0,0,0-.462-4.52c-.946-5.706,1.98-21.528-3.462-33.968s-13.087-11.86-17.268-13.153c-4.644-.907-13.964-7.548-32.009,0,0,0-16.1,5.394-18.87,25.614s-1.569,33.676-6.886,52.852-8.65,16.995-14.384,23.854-5.216,13.662-5.216,13.662c9-2.314,39.363-10.292,48.015-13.26Z" transform="translate(-117.629 -62.463)"/><path class="ap" d="M1022.351,552.322l-.67,6.109s-1.1,4.289-1.762,8.458a14.2,14.2,0,0,0,4.054,12.168c4.75,4.058,20.267,16.418,23.636,25.458s-4.606,6.352-8.261,4.568-23.843-.305-26.608-2.333-8.222-18.7-8.381-23.326,7.324-12.5,8.381-14.2,5.37-13.035,6.161-13.933.486-2.117,1.018-1.555S1022.351,552.322,1022.351,552.322Z" transform="translate(-920.399 -488.562)"/><path class="ap" d="M1030.211,546.655l.885,8.863s-1.543,8.118-.885,12.286c.819,5.193-4.791,16.117-7.161,18.142-4.749,4.058-14.513,6.615-17.882,15.656s4.606,6.352,8.261,4.568,23.843-.305,26.608-2.333,8.222-18.7,8.381-23.326-7.324-12.5-8.381-14.2-4.888-13.569-5.68-14.467-2.729-4.062-3.262-3.5S1030.211,546.655,1030.211,546.655Z" transform="translate(-991.835 -486.621)"/><path class="p" d="M213.441,237.854l-3.521,17.6-11.72,4.024,6.941,109.451,44.615-.251,2.062-111.261-7.495-2.364L240.5,237.1l-27.061.754Z" transform="translate(-154.842 -149.171)"/><path class="aq" d="M192.3,342.3c19.516,9.456,39.585,11.468,60.711.553l-.7,81.686a129.666,129.666,0,0,1-60.711-1.006Z" transform="translate(-151.562 -201.456)"/><path class="d" d="M275.781,275.5l34,9.255c8.8,2.716,16.7,7.947,16.951,17.3l2.386,92.4-1.166,43.022L305.4,424.261l-.972-28.768-3-48.87-3.859,64.988s-43.423,1.033-43.775,1.033v-53.3Z" transform="translate(-182.476 -168.256)"/><g transform="translate(0 106.892)"><path class="g" d="M275.529,275l4.477,1.811L295.3,299.747l-17.906-.3,11.116,5.935L253.9,359.05,275.529,275Z" transform="translate(-182.526 -274.899)"/><path class="g" d="M165.518,274.8l-34.153,8.651c-8.853,2.565-16.85,7.645-17.253,17L112.249,413.1h21.333l5.076-67.577L139.9,413.1s29.744-.1,43.476,0V359.051L165.518,274.8Z" transform="translate(-112 -274.8)"/></g><path class="d" d="M199.17,274.3l-5.332,2.062L179,298.7l17.906.05-11.217,5.734,30.934,54.273L199.17,274.3Z" transform="translate(-145.3 -167.66)"/><path class="v" d="M340.914,400.777a9.237,9.237,0,1,1,10.663-7.545A9.236,9.236,0,0,1,340.914,400.777Z" transform="translate(-221.957 -221.405)"/><path class="ar" d="M341.569,400.829a8.7,8.7,0,1,1,10.06-7.092A8.717,8.717,0,0,1,341.569,400.829Z" transform="translate(-222.511 -221.959)"/><path class="x" d="M346.053,400.836a4.825,4.825,0,1,1,5.583-3.923,4.839,4.839,0,0,1-5.583,3.923Z" transform="translate(-226.342 -225.789)"/><path class="v" d="M351.1,385.889l2.113.352,1.157-6.589-2.113-.352-1.157,6.589Z" transform="translate(-230.835 -219.846)"/><path class="aq" d="M170.268,376.8l3.974-.8a6.3,6.3,0,0,0,4.929-7.344l-4.678-23.49c-1.76-8.853-8.7-13.38-16.6-14.386a28.993,28.993,0,0,0-9.305.352,29.5,29.5,0,0,0-8.752,3.219c-6.941,3.923-11.569,10.764-9.808,19.617l4.678,23.49a6.313,6.313,0,0,0,2.666,3.974h0a6.3,6.3,0,0,0,4.678.956l3.974-.8-.3-1.61-3.974.8a4.465,4.465,0,0,1-3.42-.7h0a4.643,4.643,0,0,1-1.962-2.917l-4.678-23.49c-1.61-8.048,2.666-14.235,9-17.856a27.5,27.5,0,0,1,8.249-3.018,28.562,28.562,0,0,1,8.752-.352c7.243.905,13.581,5.03,15.19,13.078l4.678,23.49a4.465,4.465,0,0,1-.7,3.42,4.642,4.642,0,0,1-2.917,1.962l-3.974.8.3,1.61Z" transform="translate(-120.774 -195.618)"/><path class="as" d="M175.1,348.188l-.7-3.571c-1.811-9.154-8.953-13.782-17.1-14.838a29.932,29.932,0,0,0-9.456.352,29.139,29.139,0,0,0-8.9,3.269c-7.092,4.074-11.921,11.066-10.11,20.22l.7,3.571,2.716-.553-.7-3.571c-1.559-7.8,2.616-13.782,8.752-17.253a26.714,26.714,0,0,1,8.048-2.968,27.537,27.537,0,0,1,8.6-.352c7.042.905,13.178,4.879,14.687,12.625l.7,3.571,2.766-.5Z" transform="translate(-120.171 -195.121)"/><g transform="translate(21.578 178.58)"><path class="at" d="M155.353,429.929l2.113-.4a2.4,2.4,0,0,0,2.213.754,2.308,2.308,0,1,0-.905-4.527,2.343,2.343,0,0,0-1.76,1.509l-2.113.4Z" transform="translate(-154.9 -421.491)"/><path class="at" d="M207.144,419.978l-2.113.4a2.264,2.264,0,0,1-1.76,1.509,2.308,2.308,0,1,1-.905-4.527,2.4,2.4,0,0,1,2.213.754l2.113-.4.453,2.263Z" transform="translate(-177.568 -417.324)"/></g><path class="au" d="M165.624,326.374l-.8-4.074-1.61.3-1.61.3.8,4.125a11.176,11.176,0,0,1,1.861-.453A12.63,12.63,0,0,1,165.624,326.374Z" transform="translate(-136.652 -191.516)"/><g transform="translate(24.675 179.2)"><path class="ar" d="M161.883,428.236a.674.674,0,0,0,.553-.8.653.653,0,0,0-.8-.553.674.674,0,0,0-.553.8.7.7,0,0,0,.8.553Z" transform="translate(-161.056 -422.681)"/><path class="ar" d="M203.583,419.936a.686.686,0,0,0,.553-.8.691.691,0,0,0-1.358.252A.662.662,0,0,0,203.583,419.936Z" transform="translate(-181.781 -418.556)"/></g><path class="v" d="M345.763,401.244a4.569,4.569,0,1,1,5.281-3.722A4.6,4.6,0,0,1,345.763,401.244Z" transform="translate(-226.303 -226.248)"/><g transform="translate(24.85 106.439)"><path class="as" d="M185.143,276.264c-.05,0-25.1.2-20.874,22.081l-2.314.453c-4.778-24.647,23.087-24.9,23.138-24.9l.05,2.364Z" transform="translate(-161.404 -273.9)"/><path class="as" d="M307.75,274.1a23.657,23.657,0,0,1,18.057,8.6c5.935,7.243,10.11,20.522,6.992,44.816l-2.364-.3c3.018-23.54-.905-36.215-6.489-43.056a21.38,21.38,0,0,0-16.247-7.746l.05-2.314Z" transform="translate(-234.115 -273.999)"/></g><g transform="translate(85.918 45.309)"><path class="av" d="M394.416,141.336l-1.744-1.574,6.036-16.9s.838-1.288,1.965-.57c.546.348.576.251,0,1.107C399.305,125.25,398.32,132.444,394.416,141.336Z" transform="translate(-386.275 -122.075)"/><path class="av" d="M6.5,19.454,7.76,18.193.835,0A1.21,1.21,0,0,0,0,1.294C.065,2.346,2.594,10.562,6.5,19.454Z" transform="translate(13.756 19.068) rotate(45)"/></g><g transform="translate(37.201 45.985)"><path class="av" d="M6.678,19.262l1.744-1.574L2.386.788S1.547-.5.421.218c-.546.348-.576.251,0,1.107C1.789,3.175,2.774,10.369,6.678,19.262Z" transform="matrix(0.996, 0.087, -0.087, 0.996, 4.704, 0)"/><path class="av" d="M6.5,0,7.76,1.262.835,19.454A1.21,1.21,0,0,1,0,18.161C.065,17.109,2.594,8.892,6.5,0Z" transform="translate(18.092 33.291) rotate(142)"/></g><path class="aw" d="M127.264,107.678c-13.323-.385-15.59-7.678-23.089-7.678s-9.766,7.294-23.089,7.678a1.1,1.1,0,0,0-1.085,1.1v2.211l.453.975L80,113.186v5.494c0,13.351,10.824,21.469,24.174,21.469s24.174-8.118,24.174-21.469v-5.494l-.371-1.195.371-1v-2.211A1.1,1.1,0,0,0,127.264,107.678Z" transform="translate(-33.802 -45.319)"/><path class="ax" d="M104.174,228.791C90.824,228.791,80,224.45,80,220v2.2a24.174,24.174,0,0,0,48.349.014v-2.2C128.349,224.45,117.525,228.791,104.174,228.791Z" transform="translate(-33.802 -148.836)"/><g transform="translate(46.198 57.978)"><path class="av" d="M104.174,224.4C90.824,224.4,80,222.431,80,220c0,10.315,10.824,18.68,24.174,18.68s24.174-8.365,24.174-18.68C128.349,222.431,117.525,224.4,104.174,224.4Z" transform="translate(-80 -206.814)"/><path class="av" d="M128.349,133.89a32.519,32.519,0,0,1-18.873-5.522c-2.417-1.456-3.654-2.17-5.3-2.17s-2.884.7-5.3,2.17A32.592,32.592,0,0,1,80,133.89v-2.2a30.615,30.615,0,0,0,17.732-5.206c2.623-1.593,4.217-2.486,6.442-2.486s3.818.893,6.442,2.486a30.651,30.651,0,0,0,17.732,5.206Z" transform="translate(-80 -124)"/></g><path class="o" d="M-6542.456,9382.307l2.441-25.141s8.877,0,15.292-2.851a27.879,27.879,0,0,0,10.367-8.553l-.5-3.123s-6.944,5.407-14.08,6.169-14.844-3.681-14.844-3.681l-2.722,12.751h-.966Z" transform="translate(6601.362 -9251.355)"/><path class="o" d="M-6481.373,9374.125l-11.578,41.672,2.114-.3,10.555-41.08Z" transform="translate(6573.337 -9267.539)"/></g><g transform="translate(120.979 121.876)"><g transform="translate(28.311 0.001)"><g transform="translate(0 0)"><path class="ay" d="M1011.039,499.419a1.045,1.045,0,0,1-.574-.171,15.414,15.414,0,0,0-10.286-1.991,1.06,1.06,0,0,1-.418-2.078,17.3,17.3,0,0,1,11.853,2.289,1.059,1.059,0,0,1-.574,1.95Z" transform="translate(-998.91 -494.945)"/></g></g><g transform="translate(8.358 9.056)"><ellipse class="az" cx="2.825" cy="3.822" rx="2.825" ry="3.822" transform="translate(0 0)"/></g><g transform="translate(31.677 9.584)"><ellipse class="az" cx="2.825" cy="3.822" rx="2.825" ry="3.822" transform="translate(0 0)"/></g><g transform="translate(0 3.636)"><g transform="translate(0 0)"><path class="ba" d="M928.417,524.843a9.8,9.8,0,1,1,9.712-9.8A9.768,9.768,0,0,1,928.417,524.843Zm0-17.48a7.68,7.68,0,1,0,7.591,7.679A7.643,7.643,0,0,0,928.417,507.363Z" transform="translate(-918.707 -505.242)"/></g></g><g transform="translate(25.936 4.371)"><g transform="translate(0 0)"><path class="ba" d="M1001.892,526.923a9.8,9.8,0,1,1,9.713-9.8A9.765,9.765,0,0,1,1001.892,526.923Zm0-17.481a7.682,7.682,0,1,0,7.592,7.682A7.646,7.646,0,0,0,1001.892,509.442Z" transform="translate(-992.183 -507.324)"/></g></g><g transform="translate(17.34 13.911)"><g transform="translate(0 0)"><path class="ba" d="M977.276,536.644h-.021l-8.386-.165a1.058,1.058,0,0,1-1.039-1.08.969.969,0,0,1,1.08-1.039l8.386.165a1.06,1.06,0,0,1-.021,2.12Z" transform="translate(-967.83 -534.351)"/></g></g><g transform="translate(43.394 9.021)"><path class="bb" d="M1038.884,509.47s5.228-3.361,6.667-4.117" transform="translate(-1038.884 -505.353)"/></g><g transform="translate(3.904 0)"><g transform="translate(0 0)"><path class="ay" d="M930.827,499.417a1.06,1.06,0,0,1-.577-1.95,17.291,17.291,0,0,1,11.853-2.289,1.06,1.06,0,0,1-.419,2.078,15.372,15.372,0,0,0-10.283,1.991A1.054,1.054,0,0,1,930.827,499.417Z" transform="translate(-929.766 -494.942)"/></g></g></g></g><circle class="bc" cx="2.5" cy="2.5" r="2.5" transform="translate(1247.5 2620.456)"/><circle class="bc" cx="2.5" cy="2.5" r="2.5" transform="translate(1247.5 2645.456)"/></g></svg>