<svg xmlns="http://www.w3.org/2000/svg" xmlns:xlink="http://www.w3.org/1999/xlink" width="722.281" height="857.404" viewBox="0 0 722.281 857.404"><defs><style>.a{fill:#f7ac85;}.b{fill:#8f786c;opacity:0.3;}.c{fill:#7ba7e1;}.d{fill:#eef3f7;}.aa,.ab,.ad,.ak,.al,.bb,.bd,.e,.j,.k,.t,.u{fill:none;}.e{stroke:#7ba7e1;}.al,.e,.t,.u{stroke-width:2.5px;}.f{fill:#5f94db;}.g{fill:#fff;}.ao,.h{fill:#3c3c3c;}.h{opacity:0.22;}.i{fill:#a2684a;}.ak,.am,.j,.k{stroke:#000;}.aa,.ab,.ak,.am,.bb,.j,.k{stroke-linecap:round;}.ab,.j{stroke-width:2px;}.l{fill:url(#a);}.m{fill:#d4a885;}.n{fill:url(#b);}.ae,.o{fill:#e06e7e;}.p{fill:#f09b9b;}.q{fill:#292929;}.ap,.r{fill-rule:evenodd;}.s{fill:#f79471;}.t{stroke:#f79471;}.u{stroke:#eebaa7;}.v{fill:#fefefe;}.w{fill:#a2a2a2;}.x{fill:#ebecec;}.y{fill:#343434;}.z{fill:#2e6870;}.aa,.ab{stroke:#e06e7e;}.aa{stroke-width:3px;}.ac{fill:#eebaa7;}.ad,.al{stroke:#fff;}.ae{opacity:0.15;}.af{fill:#8a4f53;}.ag{fill:#753738;}.ah{fill:url(#c);}.ai{fill:#cfd8ec;}.aj{fill:#c0cbe4;}.ak{stroke-width:1.7px;}.am,.bb{stroke-linejoin:round;}.an{opacity:0.16;}.ap{fill:#343333;}.aq{fill:#21d0c3;}.ar{fill:#0f7986;}.as{fill:#4d4d4d;}.at{fill:#076673;}.au{fill:#666;}.av{fill:#dbeaff;}.aw{fill:#edf4ff;}.ax{fill:#c3ddff;}.ay{fill:#8a4e53;}.az{fill:#4c2243;}.ba{fill:#f1ddd7;}.bb{stroke:#f1ddd7;stroke-width:0.84px;}.bc{stroke:none;}</style><linearGradient id="a" x1="0.223" y1="0.248" x2="0.929" y2="0.63" gradientUnits="objectBoundingBox"><stop offset="0" stop-color="#dab79d"/><stop offset="0.532" stop-color="#efd4c0"/><stop offset="1" stop-color="#d5ae8f"/></linearGradient><linearGradient id="b" x1="0.256" y1="1" x2="1.478" y2="-1.89" gradientUnits="objectBoundingBox"><stop offset="0" stop-color="#d4a885"/><stop offset="1" stop-color="#fee3ce"/></linearGradient><linearGradient id="c" x1="0.108" y1="0.398" x2="0.916" y2="0.367" gradientUnits="objectBoundingBox"><stop offset="0" stop-color="#141414"/><stop offset="0.525" stop-color="#272727"/><stop offset="1" stop-color="#111"/></linearGradient></defs><g transform="translate(-1105 -2343.13)"><g transform="translate(1369.941 2329)"><path class="a" d="M229.562,238.655l-7.245,36.284L198.2,283.232l14.284,225.581,91.808-.518,4.244-229.313-15.422-4.872L285.247,237.1l-55.685,1.555Z" transform="translate(-108.979 -51.4)"/><path class="b" d="M118.526,199.189l-2.367,13.728s7.2,18.5,27.8,16.921,37.233-16.921,37.233-16.921L178.5,195.24Z"/><path class="a" d="M197.779,191.824S209.842,251,252.271,251.108s58.773-56.756,59.226-58.275c4.609,1.615,16.82-17.8,7-35.361-2.805-5.046-10.208-3.193-10.208-3.193-3.865-9.652,2.27-34.6-17.773-39.3-9.247-2.164-47.6-15.848-58.625-12.384-18.05,5.67-34.113,21.745-34.113,21.745s-.4,3.592-2.6,30.943c0,0-7.854-4.81-10.365,3.77S183.853,192.833,197.779,191.824Z" transform="translate(-107.708 -38.015)"/><path class="c" d="M212.52,316.436s7.4,31.4,47.6,31.4,45.2-31.4,45.2-31.4L285.87,584.085l-30.4-16.8s-37.878-25.806-59.2-32.8Z" transform="translate(-110.211 -89.285)"/><path class="d" d="M299.031,275.5,369,294.545c18.113,5.589,36.872,16.962,37.39,36.214V615.226l-54.572-31.2V421.855L328.29,570.826l-52.067-30.4s.725-20.138,0-20.138c0,0-5.7-29,0-90.2S299.031,275.5,299.031,275.5Z" transform="translate(-107.031 -49.626)"/><g transform="translate(154.883 245.451)"><path class="e" d="M53.927,75.1c1.726-2.713,2.535-5.76,7.557-5.918,4.507.064,5.566,4.065,7.1,6.537s5.414,5.649,1.883,9.783-5.473.515-8.979.4-5.821,3.384-9.572-.4S52.2,77.814,53.927,75.1Z" transform="translate(1.4 2.412)"/><g class="e" transform="translate(64.022 55.55)"><ellipse class="bc" cx="4.708" cy="6.473" rx="4.708" ry="6.473"/><ellipse class="bd" cx="4.708" cy="6.473" rx="3.458" ry="5.223"/></g><g class="e" transform="matrix(0.94, 0.342, -0.342, 0.94, 75.497, 65.052)"><ellipse class="bc" cx="4.119" cy="5.296" rx="4.119" ry="5.296"/><ellipse class="bd" cx="4.119" cy="5.296" rx="2.869" ry="4.046"/></g><g class="e" transform="translate(53.815 75.006) rotate(160)"><ellipse class="bc" cx="4.119" cy="5.296" rx="4.119" ry="5.296"/><ellipse class="bd" cx="4.119" cy="5.296" rx="2.869" ry="4.046"/></g><g class="e" transform="translate(52.253 55.55)"><ellipse class="bc" cx="4.708" cy="6.473" rx="4.708" ry="6.473"/><ellipse class="bd" cx="4.708" cy="6.473" rx="3.458" ry="5.223"/></g></g><path class="f" d="M114.859,246.914l.8,6.628a57.569,57.569,0,0,0,33.943,9.487c20.343-.687,32.457-7.887,32.457-7.887l.8-7.2s-12.8,11.542-34.743,10.856S114.859,246.914,114.859,246.914Z"/><g transform="translate(0 225.149)"><path class="g" d="M306.637,277.243l32.447,48.681-36.848-.621,22.874,12.214L277.22,421.71l14.617-149.066Z" transform="translate(-107.027 -274.793)"/><path class="g" d="M222.129,274.8l-70.279,17.8c-18.217,5.279-39.021,18.929-39.849,38.18L96.393,520.416h62.874l7.59-100.089V520.416s46.145-.207,74.4,0c0,0,4.783-22.562,0-83.966S222.129,274.8,222.129,274.8Z" transform="translate(-112 -274.8)"/></g><path class="d" d="M222.261,275.6l-12.728,3L179,325.15l36.848.1-23.081,11.952L239.311,441l-17.05-165.4Z" transform="translate(-109.652 -51.8)"/><path class="h" d="M-6570.818,9247.6s-3.342,6.063,2.258-8.138,11.324-21.4,22.257-22.2,9.42,12.367,31.259,22.2c18.3,8.24,53.067,5.267,53.067,5.267l3.027,11.883a23.105,23.105,0,0,1,6.806-2.016c3.236-.281,6.267,9.333,6.267,9.333l-6.267-28.134-94.159-42.232-31.5,33.923s.139,18.9-2.961,21.5a8.112,8.112,0,0,0-2.9,6.2s1.607-4,4.7-4.3a17.636,17.636,0,0,1,4.6,0Z" transform="translate(6660.37 -9131.66)"/><g transform="translate(-358.815 -188.194)"><g transform="translate(516.081 290.121)"><g transform="translate(0 0)"><path class="i" d="M1023.868,504.152a2.15,2.15,0,0,1-1.182-.352c-9.708-6.276-21.058-4.124-21.167-4.1a2.181,2.181,0,0,1-.861-4.275c.532-.111,13.163-2.556,24.391,4.71a2.18,2.18,0,0,1-1.182,4.013Z" transform="translate(-998.91 -494.945)"/></g></g><g transform="translate(473.022 312.694)"><ellipse cx="5.813" cy="5.895" rx="5.813" ry="5.895" transform="translate(0 0)"/></g><g transform="translate(523.007 312.694)"><ellipse cx="5.813" cy="5.94" rx="5.813" ry="5.94" transform="translate(0 0)"/></g><g transform="translate(461.855 294.119)"><g transform="translate(0 0)"><path class="i" d="M931.95,504.151a2.182,2.182,0,0,1-1.187-4.013c11.236-7.266,23.861-4.826,24.391-4.71a2.181,2.181,0,0,1-.862,4.276c-.111-.031-11.458-2.187-21.161,4.1A2.169,2.169,0,0,1,931.95,504.151Z" transform="translate(-929.766 -494.942)"/><path class="j" d="M38.378,28.955s.76,8,1.6,14.561.32,9.76,1.76,11.68,3.88,1.72,6.4.96a16.843,16.843,0,0,0,4.8-2.56" transform="translate(6.56 -5.245) rotate(7)"/><path class="j" d="M27.136,74.942s10.329,5.2,19.816,4.8,18.134-6.4,18.134-6.4" transform="translate(-5.986 4.19) rotate(-7)"/><path class="k" d="M42.952,83.742l10.933-1.334" transform="translate(2 1)"/></g></g></g><path class="l" d="M189.245,157.165a5.056,5.056,0,0,1,6.771,3.052c2.067,5.035.716,20.648,1.625,17.21h2.336s-.311-28.013,4.517-41.293,12.382-16.027,17.288-16.627,9.1.233,16.561,5.16,5.97,4.8,14.277,11.467,31.094,13.589,55.059,11.2l1.588,34.936c.922-.909,3.392,0,3.392,0s.4-20.9,2.664-22.05,4.814.583,6.346,3.15h0s9.991-33.851-3.272-61.687c-.368-.625,2.955,4.938,2.244,1.467-1.246-6.079-10.768-12.5-12.283-14.024-5.767-5.805-13.763-10.462-24.473-12.856-2.531-.566,9.656,2.72,5.918,0s-19.338-3.773-22.076-4.116C226,66.927,219.913,86,219.913,86a39.09,39.09,0,0,0-25.957,19.066C184.644,121.6,189.245,157.165,189.245,157.165Z" transform="translate(-109.769 -39.981)"/><path class="m" d="M747.866,9368.794a52.28,52.28,0,0,0,9.4-9.761c3.634-5.263,7.653-12.639,7.653-12.639a158.6,158.6,0,0,1,0,19.36,163.5,163.5,0,0,1-3.04,19.039s-3.333-5.521-6.4-2.72c-2.533,2.8-2.72,21.259-2.72,21.259h-4.01l-.884-34.539" transform="translate(-549.941 -9261.314)"/><path class="n" d="M656,9307.96s-3.35,12.03-.84,20.36,10.88,12.959,10.88,12.959-14.6-4.7-22.14,9.671-8,47.8-8,47.8h-2.6s.513-12.585-1.021-16.853a5.5,5.5,0,0,0-6.933-3.466s-3.792-32.539,3.92-50.111S656,9307.96,656,9307.96Z" transform="translate(-545.803 -9261.314)"/></g><g transform="translate(1549.941 2456.424)"><path class="o" d="M-6571.29,9247.323a93.024,93.024,0,0,1,8.364-21.654c5.9-10.715,15.232-21.207,15.232-21.207a81.231,81.231,0,0,0,31.661,26.285c17.615,8.2,48.822,12.725,48.822,12.725l3.6,12.818s1.627-4.946,4.742-5.227,7.716,4.106,7.716,4.106l-12.458-27.857-84.08-33.752-30.316,33.752-5.19,23.969a4.264,4.264,0,0,1,3.733-2.687c2.978-.3,8.177,1.492,8.177,1.492Z" transform="translate(6653.363 -9151.71)"/><path class="p" d="M184.241,157.386c-1.065,11.11-.384,31.943,13.075,30.977,0,0,14.347,51.1,54.3,52.595,37.9.373,54.151-46.8,55.6-51.629,4.454,1.546,16.256-17.038,6.766-33.848-2.711-4.83-9.865-3.056-9.865-3.056v-9.973c-50.834,4.927-83.872-34.71-83.872-34.71-18.867,18.8-23.316,19.468-25.446,45.649,0,0-1.063-.986-5.033-1.083C188.41,152.4,186.835,151.941,184.241,157.386Z" transform="translate(-114.488 -53.035)"/><path class="o" d="M-6571.29,9247.6a93.761,93.761,0,0,1,8.363-21.766A72.67,72.67,0,0,1-6547.7,9207.3s10.64,13.8,31.659,23.635c17.613,8.24,48.819,12.79,48.819,12.79l3.6,12.884s2.716-3.108,5.831-3.39,7.52,5.12,7.52,5.12l-13.351-30.856-84.074-33.923-30.314,33.923-5.381,28s1.184-4.81,4.16-5.11a64.623,64.623,0,0,1,7.94,0Z" transform="translate(6653.37 -9148.084)"/><path class="q" d="M225.061,255.949l1.885-22.3c-19.032-18.742-28.983-47.049-28.983-47.049-12.946,1.449-18.163-34.3-9.468-35.552a12.7,12.7,0,0,1,6.666.676c1.932-27.63,11.046-31.237,25.215-45.922,0,0,32.364,40.511,83.084,35.584l.773,11.593c2.415-2.319,7.448-2.246,11.119,3.744.385.637,2.986,9.212,1.867,15.261-1.536,8.3-7.531,15.051-11.108,15.728-1.063,3.381-9.414,28.74-26.417,46.033l41.318,15.981s2.365-78.9-3.793-126.193S287.237,65.78,252.689,63.8s-68.348,15.954-73.662,54.791-2.5,131.139-2.5,131.139l33.954,4.353Z" transform="translate(-114.492 -51.273)"/><path class="r" d="M1038.919,552.322l-1.288,6.9a78.458,78.458,0,0,0-3.384,9.548c-1.573,5.862,1.316,26.751,7.787,36.957s7.212,11.258,7.087,10.676c-7.021-2.015-32.523,2.288-37.833,0s-2.651-19.313-2.651-19.313A74.491,74.491,0,0,0,1024,579.807c6.68-10.56,11.36-24.961,11.36-24.961Z" transform="translate(-843.099 -418.589)"/><path class="r" d="M1057,546.448l2.189,17.263s3.234,17.6,4.5,25.609c1.573,9.974-4.5,30.739-4.5,30.739s9.65,1.138,18.484,2.489c7.4,1.133,13.969,2.832,15.681-2.489,2.592-8.054,2.366-20.491,2.366-20.491s-1.96-1.2-6.08-5.76-9.232-10.6-10.4-12.479c-2.03-3.269-12.48-25.44-12.48-25.44a6.8,6.8,0,0,1-5.6-1.76C1058.725,551.769,1057,546.448,1057,546.448Z" transform="translate(-983.786 -420.112)"/><path class="p" d="M227.473,238.549l-6.763,33.813-22.51,7.729,13.332,210.223,85.693-.483,3.961-213.7-14.395-4.541-7.342-34.49-51.976,1.449Z" transform="translate(-114.922 -62.546)"/><path class="s" d="M192.953,342.3c37.485,21.8,76.032,26.435,116.608,1.275l-1.353,188.289A208.814,208.814,0,0,1,191.6,529.546Z" transform="translate(-114.699 -98.919)"/><path class="d" d="M296.282,275.5l65.308,17.776c16.907,5.217,32.074,15.264,32.558,33.234,0,0,1.716,117.413-3.618,125.714-15.467,19.3-47.6,53.748-47.6,53.748L300.4,455.958,345.73,427.69l5.6-59.333L325.894,545.111l-63.657-39.139h-4.48l4.48-65.829Z" transform="translate(-117.071 -63.848)"/><g transform="translate(172.371 283.142)"><path class="t" d="M1593.2,3714.105c13.271-.146,13.144-11.01,12.834-13.854s-.584-3.209-2.187-6.126a28.8,28.8,0,0,0-4.229-5.542s.438-4.667-1.167-7.147-5.25-2.771-5.25-2.771" transform="translate(-1559.967 -3673.27)"/><path class="t" d="M1594.9,3683.343a18.472,18.472,0,0,1,1.724-3.555,28.8,28.8,0,0,1,4.23-5.542s-.438-4.667,1.167-7.146,5.25-2.771,5.25-2.771l3.225-5.4" transform="translate(-1574.054 -3658.933)"/><path class="u" d="M1489,3748.2v4.1" transform="translate(-1481.526 -3723.791)"/><path class="u" d="M1489,3748.2v4.1" transform="translate(-1465.119 -3723.791)"/><path class="u" d="M1489,3748.2v4.1" transform="translate(-1476.057 -3723.791)"/><path class="u" d="M1489,3748.2v4.1" transform="translate(-1459.649 -3723.791)"/><path class="u" d="M1489,3748.2v4.1" transform="translate(-1470.588 -3723.791)"/><path class="t" d="M1547.9,3778a16.721,16.721,0,0,0,5.018,6.207,16.156,16.156,0,0,0,7.6,2.134" transform="translate(-1527.055 -3745.442)"/><path class="u" d="M1497.995,3757.4H1478.3v8.094h36.432V3757.4Z" transform="translate(-1478.3 -3732.936)"/></g><g transform="translate(0 210.976)"><path class="g" d="M296.161,275l8.6,3.478,29.369,44.054-34.393-.58,21.351,11.4-56.4,99.8L296.161,275Z" transform="translate(-117.529 -274.807)"/><path class="g" d="M214.793,274.8l-65.6,16.617c-17,4.927-32.364,14.685-33.137,32.654L112,504.055h44.119l7.085-93.422,11.464,93.422s43.181-.193,69.556,0V437.631L214.793,274.8Z" transform="translate(-112 -274.8)"/></g><path class="d" d="M217.741,274.3,207.5,278.261,179,321.156l34.393.1-21.544,11.013,54.646,104.353L217.741,274.3Z" transform="translate(-114.271 -63.807)"/><g transform="translate(15.883 202.833)"><path class="v" d="M353.972,417.664a17.741,17.741,0,1,0-20.481-14.491A17.739,17.739,0,0,0,353.972,417.664Z" transform="translate(-333.236 -270.306)"/><path class="w" d="M353.914,416.736a16.717,16.717,0,1,0-19.322-13.622A16.743,16.743,0,0,0,353.914,416.736Z" transform="translate(-289.502 -285.278)"/><path class="x" d="M352.919,409.654a9.268,9.268,0,1,0-10.724-7.536,9.293,9.293,0,0,0,10.724,7.536Z" transform="translate(-289.763 -285.539)"/><path class="v" d="M357.38,391.956l-4.058.676L351.1,379.976l4.058-.676,2.222,12.656Z" transform="translate(-295.286 -285.134)"/><path class="v" d="M352.24,409.589A8.775,8.775,0,1,0,342.1,402.44,8.84,8.84,0,0,0,352.24,409.589Z" transform="translate(-288.601 -285.571)"/></g><path class="o" d="M-6545.742,9402.91l12.458-31.944s17.05,0,29.371-5.475,18.253-7.57,18.253-7.57l-2.241-8.914s-11.776,7.452-25.481,8.914-27.722-7.98-27.722-7.98l-6.44,27.769-1.867,2.986Z" transform="translate(6652.979 -9170.465)"/><g transform="translate(98.977 84.759)"><g transform="translate(46.88 0.053)"><g transform="translate(0 0)"><path class="y" d="M1022.205,503.542a2.007,2.007,0,0,1-1.1-.328c-9.061-5.858-19.655-3.849-19.757-3.823a2.035,2.035,0,0,1-.8-3.991c.155-.032,3.653-.4,3.653-.4a80.087,80.087,0,0,0,8.492,2.289c2.839.517,9.547,1.846,9.547,1.846s.634.377,1.075.662a2.035,2.035,0,0,1-1.1,3.746Z" transform="translate(-998.91 -495)"/></g></g><g transform="translate(8.556 17.393)"><ellipse class="z" cx="5.426" cy="7.341" rx="5.426" ry="7.341" transform="translate(0 0)"/></g><g transform="translate(53.344 18.409)"><ellipse class="z" cx="5.426" cy="7.341" rx="5.426" ry="7.341" transform="translate(0 0)"/></g><g transform="translate(0 0)"><g transform="translate(0 0)"><path class="y" d="M931.8,503.538a2.037,2.037,0,0,1-1.108-3.746c10.487-6.782,22.272-4.5,22.767-4.4a2.035,2.035,0,0,1-.8,3.991c-.1-.029-10.695-2.041-19.751,3.823A2.024,2.024,0,0,1,931.8,503.538Z" transform="translate(-929.766 -494.942)"/></g></g></g><path class="aa" d="M141.359,133.644s2.505-2.8,5.162-2.8,5.466,2.8,5.466,2.8" transform="translate(-8.844 5.449)"/><path class="ab" d="M0,1.076S8.836,4.57,16.952,4.3A39.59,39.59,0,0,0,32.465,0" transform="translate(123.433 160.266) rotate(-2)"/><g transform="matrix(0.998, -0.07, 0.07, 0.998, -1731.215, -2329.695)"><path class="ac" d="M1726.131,2665.7a556.824,556.824,0,0,1-2.527,57.357c-3.033,31.717-9.6,69.511-9.6,69.511l12.131,2.933s8.579-67.107,10.21-106.488c.862-20.817.292-21.044-1.074-21.939C1731.385,2664.533,1726.131,2665.7,1726.131,2665.7Z" transform="translate(-4)"/><line class="ad" x2="3" transform="translate(1722 2670.5)"/><line class="ad" x2="3" transform="translate(1722 2686.5)"/><line class="ad" x2="3" transform="translate(1721.2 2702.5)"/><line class="ad" x2="3" transform="translate(1720 2718.5)"/><line class="ad" x2="3" transform="translate(1716 2750.5)"/><line class="ad" x2="3" transform="matrix(0.998, 0.07, -0.07, 0.998, 1711, 2782.396)"/><line class="ad" x2="3" transform="translate(1718 2734.5)"/><line class="ad" x2="3" transform="matrix(1, 0.017, -0.017, 1, 1714, 2766.474)"/><line class="ad" x2="4.5" transform="translate(1722 2678.5)"/><line class="ad" x2="4.5" transform="translate(1721.8 2694.5)"/><line class="ad" x2="4.5" transform="translate(1720.8 2710.5)"/><line class="ad" x2="4.5" transform="translate(1717 2742.5)"/><line class="ad" x2="4.5" transform="translate(1713 2774.382) rotate(3)"/><line class="ad" x2="4.5" transform="translate(1719 2726.5)"/><line class="ad" x2="4.5" transform="translate(1715 2758.5)"/><line class="ad" x2="4.5" transform="translate(1710.03 2790.109) rotate(10)"/></g><g transform="matrix(-0.961, -0.276, 0.276, -0.961, 80.443, 337.693)"><path class="ac" d="M12.131,129.8A556.828,556.828,0,0,0,9.6,72.445C6.571,40.727,0,2.933,0,2.933L12.131,0s8.579,67.108,10.21,106.489c.862,20.817.292,21.045-1.074,21.939C17.386,130.968,12.131,129.8,12.131,129.8Z"/><line class="ad" x2="3" transform="translate(12 125.001)"/><line class="ad" x2="3" transform="translate(12 109.001)"/><line class="ad" x2="3" transform="translate(11.2 93)"/><line class="ad" x2="3" transform="translate(10 77)"/><line class="ad" x2="3" transform="translate(6 45)"/><line class="ad" x2="3" transform="matrix(0.998, -0.07, 0.07, 0.998, 1, 13.105)"/><line class="ad" x2="3" transform="translate(8 61)"/><line class="ad" x2="3" transform="matrix(1, -0.017, 0.017, 1, 4, 29.027)"/><line class="ad" x2="4.5" transform="translate(12 117.001)"/><line class="ad" x2="4.5" transform="translate(11.8 101)"/><line class="ad" x2="4.5" transform="translate(10.8 85)"/><line class="ad" x2="4.5" transform="translate(7 53)"/><line class="ad" x2="4.5" transform="translate(3 21.118) rotate(-3)"/><line class="ad" x2="4.5" transform="translate(9 69)"/><line class="ad" x2="4.5" transform="translate(5 37)"/><line class="ad" x2="4.5" transform="matrix(0.985, -0.174, 0.174, 0.985, 0.03, 5.391)"/></g><circle class="ae" cx="10.5" cy="10.5" r="10.5" transform="translate(161.059 121.576)"/><circle class="ae" cx="10.5" cy="10.5" r="10.5" transform="translate(94.059 121.576)"/></g><g transform="translate(1492.827 2633)"><path class="af" d="M229.562,238.655l-7.245,36.284L198.2,283.232l14.284,225.581,91.808-.518,4.244-229.313-15.422-4.872L285.247,237.1l-55.685,1.555Z" transform="translate(-108.979 -51.4)"/><path class="ag" d="M118.526,198.745l-2.367,12.185s7.2,16.42,27.8,15.02,37.233-15.02,37.233-15.02L178.5,195.24Z"/><path class="ah" d="M85.009,127.466S60.559,40.4,144.559,40s58.65,87.466,58.65,87.466Z"/><path class="af" d="M197.385,191.824S209.107,251,250.338,251.108s57.114-56.756,57.553-58.275c4.479,1.615,16.345-17.8,6.8-35.361-2.726-5.046-9.919-3.193-9.919-3.193-2.336-6,1.051-38.964-14.149-41.564s-20.642,4.479-37.4,4c-18.473.31-23.4-9.4-38.2-4s-19.136,29.335-20.173,42.573c0,0-7.632-4.81-10.073,3.77S183.852,192.833,197.385,191.824Z" transform="translate(-106.767 -38.015)"/><path class="ai" d="M222.47,348.035v-35l35.153,41.65,40.16-41.65L316.53,554.049c-18.734,5.31-36.434-4.563-56.41-4.563-23.081,0-45.415-6.207-66.737-13.2Z" transform="translate(-110.211 -89.285)"/><path class="ai" d="M292.084,273.16,367.5,294.5c17.9,5.576,36.434,16.921,36.945,36.127,0,0,10.9,119.067,8.237,145.733s-16.533,140.8-16.533,140.8l-41.067-24.534V462.493l-5.806-60.8-8.994,183.033-69.2-39.2s-29.684-18.8-30.4-18.8c0,0-2.239-61.9,16.436-119.317S292.084,273.16,292.084,273.16Z" transform="translate(-104.911 -49.626)"/><g transform="translate(0 225.149)"><path class="ai" d="M222.639,273.45,151.849,292.6c-18.217,5.279-39.021,18.929-39.849,38.18l-7.228,113.567,53.2,32,8.885-56.024v61.224l85.565,48.35,6.637-89.57L224.506,273.45Z" transform="translate(-112 -274.8)"/></g><path class="aj" d="M1.075-3.55l3.2,3.8,3-3.066L6.114,220.143l-6.4-3.657Z" transform="translate(143.172 265)"/><g transform="translate(103.221 107.308)"><g transform="translate(53.219 3.307) rotate(-7)"><g transform="translate(0 0)"><path d="M24.232,9.117a2.037,2.037,0,0,1-1.148-.347C13.667,2.53,2.626,4.72,2.52,4.748a2.1,2.1,0,0,1-2.488-1.7A2.193,2.193,0,0,1,1.7.477C2.216.364,14.5-2.123,25.394,5.1a2.209,2.209,0,0,1,.623,3.012A2.132,2.132,0,0,1,24.232,9.117Z"/></g></g><g transform="translate(10.851 17.192)"><ellipse cx="5.649" cy="5.895" rx="5.649" ry="5.895" transform="translate(0 0)"/></g><g transform="translate(59.424 17.192)"><ellipse cx="5.649" cy="5.94" rx="5.649" ry="5.94" transform="translate(0 0)"/></g><g transform="translate(0 3.617)"><g transform="translate(0 0)"><path d="M931.888,504.151a2.1,2.1,0,0,1-1.782-1,2.22,2.22,0,0,1,.628-3.015c10.918-7.266,23.187-4.826,23.7-4.71a2.177,2.177,0,0,1,1.656,2.566,2.115,2.115,0,0,1-2.494,1.71c-.108-.031-11.134-2.187-20.563,4.1A2.065,2.065,0,0,1,931.888,504.151Z" transform="translate(-929.766 -494.942)"/><path class="ak" d="M.016.011s.743,3.4,5.693,3.82A10.127,10.127,0,0,0,13.786.474" transform="translate(36.79 55.756) rotate(-2)"/><path class="j" d="M27.136,74.942s7.71,5.2,14.791,4.8,13.535-6.4,13.535-6.4" transform="translate(2.149 -3)"/></g></g></g><path class="aj" d="M144.322,262l-16.8,19.4s-9.613-22.15-15.063-34.2,0-23.45,0-23.45Z"/><path class="aj" d="M112.522,262.6l19.8,19s11.887-27.283,17.337-39.333,0-18.316,0-18.316Z" transform="translate(38)"/><circle class="g" cx="3" cy="3" r="3" transform="translate(144.059 268)"/><circle class="g" cx="3" cy="3" r="3" transform="translate(144.059 307)"/><circle class="g" cx="3" cy="3" r="3" transform="translate(144.059 346)"/><circle class="g" cx="3" cy="3" r="3" transform="translate(144.059 385)"/><circle class="g" cx="3" cy="3" r="3" transform="translate(144.059 424)"/><circle class="g" cx="3" cy="3" r="3" transform="translate(143.059 463)"/><g transform="translate(183.563 299.104)"><path class="al" d="M10.371,3332.23s.342-2.732,1.659-4a5.232,5.232,0,0,1,3.611-1.073s.659-2.22,1.952-2.439,3.22,1.561,3.22,1.561,2.049-1.1,3.318-.878,1.756,1.756,1.756,1.756,3.586.244,5.465,1.659a5.988,5.988,0,0,1,2.049,4s1.683.781,1.952,1.854-.878,2.439-.878,2.439a4.014,4.014,0,0,1,2.049,2.244,6.575,6.575,0,0,1-.683,3.513,16.444,16.444,0,0,1-.488,6.147,7.69,7.69,0,0,1-3.123,3.708,7.487,7.487,0,0,1-1.756,3.806,6.7,6.7,0,0,1-3.806,1.366,4.938,4.938,0,0,1-2.537,1.951,5.87,5.87,0,0,1-3.318-.683,3.716,3.716,0,0,1-2.537.683c-1.1-.317-1.854-1.951-1.854-1.951a13.931,13.931,0,0,1-5.367-1.952,6.846,6.846,0,0,1-2.342-3.9s-1.561-.634-1.854-1.757a4.525,4.525,0,0,1,.683-2.732,3.577,3.577,0,0,1-1.952-2.147,7.3,7.3,0,0,1,.683-3.611s.244-4.733,1.269-7.124S10.371,3332.23,10.371,3332.23Z" transform="translate(-5.527 -3324.697)"/><path class="al" d="M86.214,3332.866a7.652,7.652,0,0,1,.5,2.635,10.3,10.3,0,0,1-.5,3.123c-.236.878-.982.793-.919,2.537s1.171,2.391,1.171,4.44-1.012,1.939-1.171,3.757a8.5,8.5,0,0,0,.537,3.513A4.479,4.479,0,0,1,87,3355.6c0,1.512-1.269,2.2-1.171,3.318s.783.9.878,2.586a18.037,18.037,0,0,1-.5,4.147" transform="translate(-70.681 -3331.371)"/><path class="al" d="M91,3382.3a5.37,5.37,0,0,0,3.092,0,4.909,4.909,0,0,0,2.049-2.2" transform="translate(-75.361 -3369.963)"/><path class="al" d="M91,3382.3a5.37,5.37,0,0,0,3.092,0,4.909,4.909,0,0,0,2.049-2.2" transform="translate(-80.118 -3354.96)"/><path class="al" d="M0,2.2a9.469,9.469,0,0,0,4.128,0A5.685,5.685,0,0,0,6.864,0" transform="translate(27.114 21.335) rotate(90)"/><path class="al" d="M0,2.2a9.469,9.469,0,0,0,4.128,0A5.685,5.685,0,0,0,6.864,0" transform="matrix(0.391, -0.921, 0.921, 0.391, 2.389, 12.813)"/><path class="al" d="M0,.244a4.555,4.555,0,0,1,2.843,0,4.806,4.806,0,0,1,1.884,2.2" transform="matrix(0.946, -0.326, 0.326, 0.946, 4.855, 12.233)"/><path class="al" d="M0,.244a4.555,4.555,0,0,1,2.843,0,4.806,4.806,0,0,1,1.884,2.2" transform="matrix(0.946, -0.326, 0.326, 0.946, 23.884, 8.391)"/></g><g transform="translate(86.914 111.919)"><g transform="translate(50.013 19.632)"><g transform="translate(0 0)"><path d="M981.523,535.651h-.03l-12.156-.093c-.849-.006-1.523-.281-1.505-.612s.585-.638,1.566-.589l12.156.093c.849.006,1.523.28,1.505.612S982.357,535.651,981.523,535.651Z" transform="translate(-967.83 -534.351)"/></g></g><g transform="translate(64.253 0)"><g transform="translate(0 0)"><g transform="translate(0 0)"><path d="M1011.6,547.654c-10.705,0-19.415-9.044-19.415-20.164s8.71-20.166,19.415-20.166,19.423,9.046,19.423,20.166S1022.308,547.654,1011.6,547.654Zm0-39.516c-8.369,0-18.43,7.6-18.3,19.352s9.932,19.314,18.3,19.314a18.683,18.683,0,0,0,18.238-19.314C1029.706,515.11,1019.972,508.139,1011.6,508.139Z" transform="translate(-992.183 -507.324)"/></g></g><g transform="translate(38.171 9.569)"><path class="am" d="M1038.884,513.566s10.822-6.7,13.8-8.213" transform="translate(-1038.884 -505.353)"/></g></g><g transform="translate(0 1)"><g transform="translate(12.277 0)"><g transform="translate(0 0)"><path d="M1011.606,547.654c10.705,0,19.415-9.044,19.415-20.164s-8.71-20.166-19.415-20.166-19.423,9.046-19.423,20.166S1000.9,547.654,1011.606,547.654Zm0-39.516c8.369,0,18.43,7.6,18.3,19.352s-9.932,19.314-18.3,19.314a18.683,18.683,0,0,1-18.238-19.314C993.5,515.11,1003.232,508.139,1011.606,508.139Z" transform="translate(-992.183 -507.324)"/></g></g><g transform="translate(0 7.448)"><path class="am" d="M1051.828,515.686s-10.151-8.434-12.944-10.333" transform="translate(-1038.884 -505.353)"/></g></g></g><path class="aj" d="M149.8,408.448l-24,40.951,13.6,1.582a79.524,79.524,0,0,0,12.533-18c5.333-10.633,8.8-24.533,8.8-24.533Z" transform="translate(-158.143 693.203) rotate(-90)"/><path d="M190.012,78.479l9.6-11.521a81.52,81.52,0,0,1,6.88,23.841c1.36,12.56-1.44,26.4-1.44,26.4a7.343,7.343,0,0,0-2.88-.96,23.445,23.445,0,0,0-4.32,0s-1.4-19.04-3.36-28.48S190.012,78.479,190.012,78.479Z"/><path d="M209.2,81.3,199.025,67.041S192.657,79.34,191.3,91.9a113.876,113.876,0,0,0,.528,25.3,11.984,11.984,0,0,1,2.672,0,8.471,8.471,0,0,1,2.3.7s1-12.45,4.1-21.6A47.622,47.622,0,0,1,209.2,81.3Z" transform="translate(-109 -1)"/><path class="an" d="M155.412,78.359s19.12-2.318,29.12,5.281,13.28,31.519,13.28,31.519-2.92-29.116-5.44-34.2A10.869,10.869,0,0,0,185.492,75a45.859,45.859,0,0,0-8.383-.963,32.64,32.64,0,0,0-7.55.963,51.6,51.6,0,0,0-7.837,1.063,30.035,30.035,0,0,0-6.31,2.3"/></g><g transform="translate(1136.861 2452.727)"><g transform="translate(-20.021 -189.96)"><g transform="translate(-11.841 80.364)"><path class="ao" d="M-56.667,123.147l51.091,37.536-8.341-42.75Z" transform="translate(153.335 -41.653)"/><rect class="ao" width="173.928" height="86.964" rx="10" transform="translate(0 0)"/><circle class="g" cx="12.861" cy="12.861" r="12.861" transform="translate(34.296 30.621)"/><ellipse class="g" cx="13.473" cy="12.861" rx="13.473" ry="12.861" transform="translate(113.911 30.621)"/><ellipse class="g" cx="13.473" cy="12.861" rx="13.473" ry="12.861" transform="translate(73.491 30.621)"/></g></g><g transform="translate(119.079 57.273)"><path class="p" d="M184.265,160.929c-1.141,11.9-.411,34.223,14.008,33.188,0,0,20.748,60.343,60.687,67.174,34.441-6.314,55.5-60.964,57.056-66.139,4.772,1.656,17.416-18.254,7.249-36.264-2.9-5.175-10.569-3.275-10.569-3.275V144.929c-54.462,5.279-89.858-37.187-89.858-37.187-20.213,20.146-24.98,20.857-27.262,48.907,0,0-1.138-1.056-5.392-1.16-1.452.1-3.141-.393-4.8,1.16Z" transform="translate(-109.535 -56.015)"/><path class="o" d="M-6570.44,9251.16a99.66,99.66,0,0,1,8.96-23.2c6.32-11.479,16.319-22.72,16.319-22.72a87.031,87.031,0,0,0,33.92,28.16c18.872,8.782,52.306,13.633,52.306,13.633l3.854,13.733s1.743-5.3,5.08-5.6,8.267,4.4,8.267,4.4l-13.347-29.846-90.08-36.16-32.479,36.16-5.561,25.68a4.569,4.569,0,0,1,4-2.88c3.19-.32,8.76,1.6,8.76,1.6Z" transform="translate(6658.37 -9149.606)"/><path class="ao" d="M223.559,281.181l7.038-35.4c-20.39-20.08-31.051-50.407-31.051-50.407-13.87,1.553-19.459-36.744-10.143-38.09a13.6,13.6,0,0,1,7.142.725c2.07-29.6,11.834-33.466,27.015-49.2,0,0,34.674,43.4,89.014,38.124l.828,12.421c2.588-2.484,7.98-2.406,11.913,4.011.412.682,3.2,9.869,2,16.35-1.646,8.9-8.069,16.126-11.9,16.851-1.139,3.623-10.086,30.791-28.3,49.318l7.349,34.467c20.39,6.624,85.26,31.936,105.029,37.214-.963-5.855-7.107-31.1-20-47.1-12.084-15-25.2-15-36.8-31.2-8.143-11.372-14.493-35.1-16.725-53.9.15-.9.582-2.366,1-3.9.331-1.232.364-3.565.6-5.4.351-2.734-.492-6.536-.95-9.3-1.946-11.741,4.075-44.3-7.125-69.9S292.557,72.462,283.955,69.8c-9.556-1.867-28.734-15.533-65.867,0,0,0-33.137,11.1-38.829,52.708s-3.228,69.3-14.171,108.758-17.8,34.971-29.6,49.086-10.733,28.114-10.733,28.114c18.527-4.761,81-21.179,98.8-27.286Z" transform="translate(-110.118 -57.273)"/><path class="ap" d="M1041.386,552.322l-1.379,12.57s-2.271,8.827-3.625,17.4c-1.686,10.686,3.466,20.872,8.343,25.038,9.773,8.35,41.7,33.784,48.637,52.388s-9.478,13.072-17,9.4-49.064-.628-54.754-4.8-16.92-38.489-17.246-48,15.071-25.728,17.246-29.23,11.05-26.823,12.679-28.671,1-4.357,2.095-3.2S1041.386,552.322,1041.386,552.322Z" transform="translate(-831.591 -415.929)"/><path class="ap" d="M1057.559,546.655l1.821,18.237s-3.176,16.705-1.821,25.282c1.686,10.686-9.859,33.165-14.736,37.331-9.773,8.35-29.865,13.612-36.8,32.216s9.478,13.072,17,9.4,49.064-.628,54.754-4.8,16.92-38.489,17.246-48-15.071-25.728-17.246-29.23-10.058-27.922-11.687-29.77-5.616-8.358-6.712-7.2S1057.559,546.655,1057.559,546.655Z" transform="translate(-978.591 -417.929)"/><path class="p" d="M229.562,238.653l-7.245,36.227-24.117,8.28,14.284,225.225,91.808-.517,4.244-228.952-15.422-4.865L285.247,237.1l-55.685,1.553Z" transform="translate(-108.979 -50.972)"/><path class="aq" d="M193.049,342.3c40.16,19.459,81.458,23.6,124.93,1.139L316.53,511.53a266.827,266.827,0,0,1-124.93-2.07Z" transform="translate(-109.211 -47.285)"/><path class="d" d="M299.031,275.5,369,294.545c18.113,5.589,34.363,16.354,34.881,35.605l4.909,190.137-2.4,88.531-46.4-27.2-2-59.2-6.172-100.564-21.062,142.5-74.68-44.064H253.8V448.042Z" transform="translate(-107.031 -49.626)"/><g transform="translate(0 225.149)"><path class="g" d="M298.407,275l9.212,3.726,31.465,47.2-36.848-.621,22.874,12.214L253.9,447.956,298.407,275Z" transform="translate(-107.027 -274.793)"/><path class="g" d="M222.129,274.8l-70.279,17.8c-18.217,5.279-34.674,15.733-35.5,34.984L112,520.416h47.267l7.59-100.089L179.14,520.416s51.476-.207,79.733,0V448.17L222.129,274.8Z" transform="translate(-112 -274.8)"/></g><path class="d" d="M220.505,274.3l-10.971,4.244L179,324.5l36.848.1-23.081,11.8,63.655,111.681L220.505,274.3Z" transform="translate(-109.652 -49.668)"/><path class="v" d="M349.035,420.178a19.007,19.007,0,1,1,21.943-15.526A19.005,19.005,0,0,1,349.035,420.178Z" transform="translate(-104.247 -45.879)"/><path class="ar" d="M349.2,419.1a17.91,17.91,0,1,1,20.7-14.594A17.938,17.938,0,0,1,349.2,419.1Z" transform="translate(-104.208 -45.84)"/><path class="x" d="M350.278,410.967a9.929,9.929,0,1,1,11.489-8.073,9.957,9.957,0,0,1-11.489,8.073Z" transform="translate(-103.938 -45.57)"/><path class="v" d="M351.1,392.859l4.347.725,2.381-13.559-4.347-.725L351.1,392.859Z" transform="translate(-103.621 -45.989)"/><path class="aq" d="M213.23,425.722l8.177-1.656a12.961,12.961,0,0,0,10.143-15.112l-9.626-48.336c-3.623-18.217-17.906-27.532-34.156-29.6a59.664,59.664,0,0,0-19.148.725,60.715,60.715,0,0,0-18.01,6.624c-14.284,8.073-23.806,22.15-20.183,40.367l9.626,48.337a12.99,12.99,0,0,0,5.486,8.177h0a12.957,12.957,0,0,0,9.626,1.967l8.177-1.656-.621-3.312-8.177,1.656a9.188,9.188,0,0,1-7.038-1.449h0a9.554,9.554,0,0,1-4.037-6l-9.626-48.337c-3.312-16.561,5.486-29.292,18.527-36.744a56.584,56.584,0,0,1,16.975-6.21,58.774,58.774,0,0,1,18.01-.725c14.9,1.863,27.946,10.35,31.258,26.911l9.626,48.337a9.188,9.188,0,0,1-1.449,7.038,9.554,9.554,0,0,1-6,4.037l-8.177,1.656.621,3.312Z" transform="translate(-111.381 -47.697)"/><path class="as" d="M224.451,367.9,223,360.549c-3.726-18.838-18.424-28.36-35.191-30.534a61.6,61.6,0,0,0-19.459.725,59.965,59.965,0,0,0-18.32,6.728c-14.594,8.384-24.531,22.771-20.8,41.609l1.449,7.349,5.589-1.139-1.449-7.349c-3.209-16.043,5.382-28.36,18.01-35.5a54.968,54.968,0,0,1,16.561-6.107,56.663,56.663,0,0,1,17.7-.725c14.491,1.863,27.118,10.04,30.223,25.98l1.449,7.349,5.693-1.035Z" transform="translate(-111.424 -47.732)"/><g transform="translate(44.403 372.667)"><path class="at" d="M155.832,434.394l4.347-.828a4.934,4.934,0,0,0,4.554,1.553,4.75,4.75,0,1,0-1.863-9.315,4.822,4.822,0,0,0-3.623,3.105l-4.347.828Z" transform="translate(-154.9 -417.03)"/><path class="at" d="M214.162,422.785l-4.347.828a4.66,4.66,0,0,1-3.623,3.105,4.75,4.75,0,1,1-1.863-9.315,4.934,4.934,0,0,1,4.554,1.553l4.347-.828.932,4.658Z" transform="translate(-153.302 -417.324)"/></g><path class="au" d="M169.88,330.684l-1.656-8.384-3.312.621-3.312.621,1.656,8.487a22.994,22.994,0,0,1,3.83-.932A26,26,0,0,1,169.88,330.684Z" transform="translate(-110.262 -47.986)"/><g transform="translate(50.775 373.943)"><path class="ar" d="M162.758,429.7a1.387,1.387,0,0,0,1.139-1.656,1.343,1.343,0,0,0-1.656-1.139,1.387,1.387,0,0,0-1.139,1.656,1.435,1.435,0,0,0,1.656,1.139Z" transform="translate(-161.056 -418.265)"/><path class="ar" d="M204.458,421.4a1.412,1.412,0,0,0,1.139-1.656,1.421,1.421,0,0,0-2.795.518A1.363,1.363,0,0,0,204.458,421.4Z" transform="translate(-159.595 -418.556)"/></g><path class="v" d="M349.764,410.831a9.4,9.4,0,1,1,10.868-7.659A9.471,9.471,0,0,1,349.764,410.831Z" transform="translate(-103.941 -45.537)"/><g transform="translate(51.136 224.218)"><path class="as" d="M210.254,278.765c-.1,0-51.649.414-42.954,45.438l-4.761.932c-9.833-50.717,47.508-51.235,47.612-51.235l.1,4.865Z" transform="translate(-161.404 -273.9)"/><path class="as" d="M307.8,274.1c8.384.207,24.634,2.484,37.158,17.7,12.214,14.9,20.8,42.23,14.387,92.222l-4.865-.621c6.21-48.44-1.863-74.523-13.352-88.6a43.994,43.994,0,0,0-33.432-15.94l.1-4.761Z" transform="translate(-156.278 -273.893)"/></g><g transform="translate(176.801 98.426)"><path class="av" d="M396.26,161.711l-3.588-3.238L405.093,123.7s1.725-2.65,4.044-1.173c1.124.716,1.184.518,0,2.277C406.321,128.609,404.294,143.413,396.26,161.711Z" transform="translate(-379.508 -122.075)"/><path class="av" d="M13.371,40.033l2.6-2.6L1.717,0A2.49,2.49,0,0,0,.006,2.662C.134,4.827,5.338,21.734,13.371,40.033Z" transform="translate(28.308 39.238) rotate(45)"/></g><g transform="translate(76.551 99.816)"><path class="av" d="M13.742,39.636,17.33,36.4,4.91,1.621S3.184-1.029.866.448c-1.124.716-1.184.518,0,2.277C3.681,6.534,5.708,21.338,13.742,39.636Z" transform="matrix(0.996, 0.087, -0.087, 0.996, 9.68, 0)"/><path class="av" d="M13.371,0l2.6,2.6L1.717,40.033A2.49,2.49,0,0,1,.006,37.371C.134,35.206,5.338,18.3,13.371,0Z" transform="translate(37.229 68.505) rotate(142)"/></g><path class="aw" d="M177.258,115.8c-27.417-.791-32.08-15.8-47.513-15.8s-20.1,15.008-47.513,15.8A2.262,2.262,0,0,0,80,118.061v4.551l.933,2.007L80,127.134V138.44c0,27.473,22.272,44.177,49.746,44.177s49.746-16.7,49.746-44.177V127.134l-.763-2.459.763-2.063v-4.551A2.262,2.262,0,0,0,177.258,115.8Z" transform="translate(15.065 17.712)"/><path class="ax" d="M129.746,238.089C102.272,238.089,80,229.158,80,220v4.522a49.746,49.746,0,0,0,99.491.028v-4.522C179.491,229.158,157.219,238.089,129.746,238.089Z" transform="translate(15.065 -68.371)"/><g transform="translate(95.065 124.495)"><path class="av" d="M129.746,229.045C102.272,229.045,80,225,80,220c0,21.227,22.272,38.44,49.746,38.44s49.746-17.213,49.746-38.44C179.491,225,157.219,229.045,129.746,229.045Z" transform="translate(-80 -192.866)"/><path class="av" d="M179.491,144.35c-20.124,0-30.95-6.557-38.835-11.362-4.975-3-7.518-4.466-10.91-4.466s-5.936,1.441-10.91,4.466C110.921,137.793,100.1,144.35,80,144.35v-4.522c18.852,0,29.056-6.19,36.49-10.712,5.4-3.279,8.677-5.116,13.256-5.116s7.858,1.837,13.256,5.116c7.462,4.522,17.637,10.712,36.49,10.712Z" transform="translate(-80 -124)"/></g><path class="o" d="M-6537.155,9424.267l5.022-51.733s18.267,0,31.467-5.866,21.333-17.6,21.333-17.6l-1.027-6.427s-14.29,11.127-28.973,12.693-30.546-7.573-30.546-7.573l-5.6,26.24h-1.987Z" transform="translate(6658.37 -9149.606)"/><path class="o" d="M-6469.125,9374.125l-23.825,85.75,4.35-.608,21.72-84.533Z" transform="translate(6658.37 -9149.606)"/></g><g transform="translate(-239.735 -148.921)"><g transform="translate(515.081 290.121)"><g transform="translate(0 0)"><path class="ay" d="M1023.868,504.152a2.15,2.15,0,0,1-1.182-.352c-9.708-6.276-21.058-4.124-21.167-4.1a2.181,2.181,0,0,1-.861-4.275c.532-.111,13.163-2.556,24.391,4.71a2.18,2.18,0,0,1-1.182,4.013Z" transform="translate(-998.91 -494.945)"/></g></g><g transform="translate(474.022 308.754)"><ellipse class="az" cx="5.813" cy="7.865" rx="5.813" ry="7.865" transform="translate(0 0)"/></g><g transform="translate(522.007 309.842)"><ellipse class="az" cx="5.813" cy="7.865" rx="5.813" ry="7.865" transform="translate(0 0)"/></g><g transform="translate(456.823 297.602)"><g transform="translate(0 0)"><path class="ba" d="M938.689,545.577a20.168,20.168,0,1,1,19.984-20.169A20.1,20.1,0,0,1,938.689,545.577Zm0-35.97a15.8,15.8,0,1,0,15.62,15.8A15.728,15.728,0,0,0,938.689,509.606Z" transform="translate(-918.707 -505.242)"/></g></g><g transform="translate(510.194 299.113)"><g transform="translate(0 0)"><path class="ba" d="M1012.162,547.654a20.166,20.166,0,1,1,19.987-20.164A20.094,20.094,0,0,1,1012.162,547.654Zm0-35.971a15.807,15.807,0,1,0,15.623,15.807A15.733,15.733,0,0,0,1012.162,511.683Z" transform="translate(-992.183 -507.324)"/></g></g><g transform="translate(492.504 318.746)"><g transform="translate(0 -0.001)"><path class="ba" d="M987.267,539.07a.224.224,0,0,1-.043,0l-17.257-.338a2.177,2.177,0,0,1-2.137-2.222,2,2,0,0,1,2.223-2.137l17.257.339a2.181,2.181,0,0,1-.043,4.362Z" transform="translate(-967.83 -534.351)"/></g></g><g transform="translate(546.117 308.683)"><path class="bb" d="M1038.884,513.826s10.758-6.915,13.718-8.473" transform="translate(-1038.884 -505.354)"/></g><g transform="translate(464.855 290.119)"><g transform="translate(0 0)"><path class="ay" d="M931.95,504.151a2.182,2.182,0,0,1-1.187-4.013c11.236-7.266,23.861-4.826,24.391-4.71a2.181,2.181,0,0,1-.862,4.276c-.111-.031-11.458-2.187-21.161,4.1A2.169,2.169,0,0,1,931.95,504.151Z" transform="translate(-929.766 -494.942)"/></g></g></g></g></g></svg>