<svg xmlns="http://www.w3.org/2000/svg" width="18.535" height="18.535" viewBox="0 0 18.535 18.535"><defs><style>.a{fill:#3c3c3c;}</style></defs><path class="a" d="M9.267,1.67c2.474,0,2.768.009,3.746.054,2.511.114,3.685,1.306,3.8,3.8.045.977.053,1.27.053,3.745s-.009,2.768-.053,3.745c-.115,2.491-1.285,3.685-3.8,3.8-.978.045-1.27.054-3.746.054s-2.768-.009-3.745-.054C3,16.7,1.838,15.5,1.724,13.012c-.045-.977-.054-1.27-.054-3.745s.01-2.767.054-3.745c.115-2.492,1.285-3.685,3.8-3.8C6.5,1.68,6.793,1.67,9.267,1.67Zm0-1.67C6.75,0,6.435.011,5.447.056,2.081.21.211,2.077.056,5.446.011,6.435,0,6.75,0,9.267S.011,12.1.056,13.088c.154,3.366,2.022,5.236,5.39,5.39.989.045,1.3.056,3.821.056s2.833-.011,3.821-.056c3.362-.154,5.238-2.022,5.39-5.39.046-.989.056-1.3.056-3.821s-.011-2.832-.056-3.82c-.151-3.362-2.021-5.236-5.39-5.39C12.1.011,11.784,0,9.267,0Zm0,4.509a4.759,4.759,0,1,0,4.759,4.759A4.759,4.759,0,0,0,9.267,4.509Zm0,7.848a3.089,3.089,0,1,1,3.089-3.089A3.089,3.089,0,0,1,9.267,12.356Zm4.947-9.148a1.112,1.112,0,1,0,1.111,1.112A1.113,1.113,0,0,0,14.214,3.209Z" transform="translate(0 0)"/></svg>