<svg xmlns="http://www.w3.org/2000/svg" width="157.871" height="140" viewBox="0 0 157.871 140"><defs><style>.a{fill:#fff;}.b{fill:none;stroke:#fff;stroke-width:2px;}</style></defs><g transform="translate(-33.981 -30.646)"><g transform="translate(33.981 30.646)"><path class="a" d="M3.207,66.7Q0,63.125,0,57.08a16.079,16.079,0,0,1,2.185-8.692,19.624,19.624,0,0,1,5.671-5.857q3.486-2.371,10.366-6.089V33.281a9.216,9.216,0,0,0-.558-3.858q-.558-1.068-2.789-1.069a3.661,3.661,0,0,0-2.65.79,3.465,3.465,0,0,0-.93,2.185q-.139,1.394-.139,4.741h-9.2a46.49,46.49,0,0,1,.558-7.948A10.047,10.047,0,0,1,6,22.4q2.929-2.6,9.343-2.6,7.809,0,9.947,3.951a17.975,17.975,0,0,1,2.138,8.692V69.723H18.314V67.306a8.7,8.7,0,0,1-6.507,2.975A10.972,10.972,0,0,1,3.207,66.7ZM13.294,49.5a9.931,9.931,0,0,0-2.928,2.975A8.372,8.372,0,0,0,9.2,57.08q0,4.462,3.44,4.462a7.142,7.142,0,0,0,5.671-2.6V46.668A56.868,56.868,0,0,0,13.294,49.5ZM31.607,69.724V0h9.576V69.724Zm34.024,0L54.754,52.711l.186,17.013H45.271V.093L54.94,0l-.093,34.862,11.342-14.41H77.53L59.96,43.507,76.694,69.723Z" transform="translate(22.56 0)"/><path class="a" d="M33.981,85.361V94.1H39v32.63a6.754,6.754,0,0,0,2.835,5.9q2.835,2,7.855,2H53.41v-8.739H49.878a1.319,1.319,0,0,1-1.069-.511,2.06,2.06,0,0,1-.418-1.348V94.1h9.482V85.361H48.39V69.929l-9.482,5.392v10.04Z" transform="translate(-33.981 -64.909)"/><path class="a" d="M76.6,85.992V20.452H86.27V22.5a5.109,5.109,0,0,1,2.371-1.952,7.921,7.921,0,0,1,3.114-.651,10.942,10.942,0,0,1,8.692,3.812,14.385,14.385,0,0,1,3.3,9.761v22.4q0,14.411-11.9,14.409a7.631,7.631,0,0,1-5.764-2.324V85.992Zm10.737-55.5a8.325,8.325,0,0,0-1.162,4.648v21.01q0,5.3,4.276,5.3,3.811,0,3.812-5.392v-21.2a8.414,8.414,0,0,0-1.023-4.555,3.247,3.247,0,0,0-2.882-1.58A3.493,3.493,0,0,0,87.339,30.492ZM34.815,66.563q-3.58-3.717-3.579-10.133V33.467q0-6.321,3.533-9.947t9.761-3.626q6.227,0,9.25,2.789A11.576,11.576,0,0,1,57.5,28.912a39.536,39.536,0,0,1,.7,7.809v10.5H40.718v9.111a6.039,6.039,0,0,0,.976,3.812,3.767,3.767,0,0,0,3.114,1.209A3.1,3.1,0,0,0,47.6,60.1a6.539,6.539,0,0,0,.976-3.207q.139-1.952.139-6.136H58.2V56.8q0,6.323-3.579,9.9t-9.994,3.579Q38.393,70.281,34.815,66.563Zm6.6-36.256a10.645,10.645,0,0,0-.7,4.09V39.51h7.9V34.025a7.1,7.1,0,0,0-.93-4.137,3.459,3.459,0,0,0-2.975-1.255Q42.112,28.633,41.415,30.306ZM62.472,69.724V0h9.576V69.724Zm-44.9,0V33.932a7.768,7.768,0,0,0-.79-3.812,3.165,3.165,0,0,0-3.021-1.394q-2.51,0-3.347,1.441a8.113,8.113,0,0,0-.837,4.044V69.723H0V0H9.575V21.2a11.454,11.454,0,0,1,5.671-1.3q5.67,0,8.785,3.161t3.114,8.925V69.723Z" transform="translate(54.124 54.008)"/></g><g transform="translate(124.981 63.054)"><path class="b" d="M610.278,8169.565l-2.249,3.477-3.271-5.524h-3.749a6.112,6.112,0,0,1-3.067-1.427,5.818,5.818,0,0,1-1.977-3.753V8149.46a5.139,5.139,0,0,1,1.977-4.092c2.181-1.838,3.612-1.774,3.612-1.774h11.587s3.306.31,5.044,1.774a6.52,6.52,0,0,1,1.908,4.092v12.878a5.629,5.629,0,0,1-1.5,3.133,6.724,6.724,0,0,1-3.2,2.047h-7.361v-5.648" transform="translate(-595.96 -8143.593)"/><path class="a" d="M630.646,8179.1l1.176,3.554h-3.91a.877.877,0,0,0-.895.541.9.9,0,0,0,0,.943l3.246,7.07a1.1,1.1,0,0,0,.383.494,1.6,1.6,0,0,0,.665.166h1.405v2.077h-1.866a2.626,2.626,0,0,1-1.125-.222,2.344,2.344,0,0,1-.792-.776l-3.885-8.809a1.722,1.722,0,0,1,.536-2.484Z" transform="translate(-621.065 -8174.579)"/><path class="a" d="M620.191,8179.1l-1.176,3.554h3.91a.877.877,0,0,1,.9.541.9.9,0,0,1,0,.943l-3.246,7.07a1.106,1.106,0,0,1-.383.494,1.6,1.6,0,0,1-.665.166h-2.2l-.179,2.077h2.836a2.627,2.627,0,0,0,1.125-.222,2.344,2.344,0,0,0,.792-.776l3.885-8.809a1.721,1.721,0,0,0-.536-2.484Z" transform="translate(-605.752 -8174.579)"/><g transform="translate(9.035 10.861)"><circle class="a" cx="0.868" cy="0.868" r="0.868" transform="translate(0 0)"/><circle class="a" cx="0.866" cy="0.866" r="0.866" transform="translate(2.163 0.007)"/><circle class="a" cx="0.866" cy="0.866" r="0.866" transform="translate(4.327 0.007)"/></g></g></g></svg>