<svg xmlns="http://www.w3.org/2000/svg" width="62.965" height="92.85" viewBox="0 0 62.965 92.85"><defs><style>.a,.c{fill:none;}.a{stroke:#fff;stroke-width:2.5px;}.b{stroke:none;}</style></defs><g transform="translate(1.25 1.25)"><path class="a" d="M861.3,2923.072s-4.007,30.967,19.1,30.967,19.986-30.967,19.986-30.967-3.9.742-6.454-1.093-3.747-6.246-3.747-6.246a35.223,35.223,0,0,1-9.785,6.246,51.386,51.386,0,0,1-12.7,2.915" transform="translate(-850.218 -2894.707)"/><path class="a" d="M837.882,2848.179a7.107,7.107,0,0,1-3.742-1.666,8.74,8.74,0,0,1-1.874-3.955v-16.447s.931-7.755,5.615-12.283S851,2808,851,2808h14.781s6.193,1.3,10.2,5.829,5.829,12.283,5.829,12.283v16.447" transform="translate(-827.062 -2808)"/><path class="a" d="M805.6,3137.4v-11.45s.781-5.569,4.58-8.952,10.617-4.58,10.617-4.58a8.143,8.143,0,0,0,5.621-2.082c2.186-2.238,3.123-6.87,3.123-6.87" transform="translate(-805.6 -3045.801)"/><path class="a" d="M921.457,3013.637v-14.989l-12.283-2.915-12.907,2.915v14.989" transform="translate(-878.571 -2959.093)"/><path class="a" d="M1025.334,2990.688l7.286-5.621" transform="translate(-982.448 -2950.509)"/><path class="a" d="M1032.62,2990.688l-7.286-5.621" transform="translate(-1014.456 -2950.509)"/><path class="a" d="M909.067,3137.6s1.874,5.621,10.2,5.413,8.952-5.413,8.952-5.413a8.222,8.222,0,0,0,2.29,2.082,20.74,20.74,0,0,0,3.747,1.665v8.744h0c.005,0-4.218-.621-6.037,2.915s-1.249,11.242-1.249,11.242" transform="translate(-888.873 -3073.271)"/><path class="a" d="M1037.24,3201.618s4.13-.432,5.8,3.315,1.041,9.993,1.041,9.993" transform="translate(-992.031 -3124.783)"/><path class="a" d="M1080.8,3165.333a11.935,11.935,0,0,1,5.621,7.287c1.457,5.256,1.041,12.907,1.041,12.907" transform="translate(-1027.089 -3095.592)"/><path class="a" d="M880.267,3150.4v9.785" transform="translate(-865.694 -3083.574)"/><g class="a" transform="translate(9.641 75.336)"><circle class="b" cx="5.562" cy="5.562" r="5.562"/><circle class="c" cx="5.562" cy="5.562" r="4.312"/></g></g></svg>