<svg xmlns="http://www.w3.org/2000/svg" width="74.778" height="92.85" viewBox="0 0 74.778 92.85"><defs><style>.a{fill:none;stroke:#fff;stroke-width:2.5px;}</style></defs><g transform="translate(1.25 1.25)"><path class="a" d="M861.3,2925.683s-3.985,28.14,18.993,28.14,19.872-30.792,19.872-30.792-3.881.738-6.417-1.087-3.726-6.21-3.726-6.21a35.019,35.019,0,0,1-9.729,6.21,51.092,51.092,0,0,1-12.627,2.9" transform="translate(-850.28 -2894.826)"/><path class="a" d="M958.044,2875.2V2826.01s-1.811-7.711-5.8-12.214S942.1,2808,942.1,2808H927.2" transform="translate(-903.602 -2808)"/><path class="a" d="M927.2,2877.631V2826.01s1.811-7.711,5.8-12.214,10.143-5.8,10.143-5.8h14.9" transform="translate(-920.874 -2808)"/><path class="a" d="M805.6,3137.209v-11.385s.776-5.538,4.554-8.9,10.557-4.554,10.557-4.554a8.1,8.1,0,0,0,5.589-2.07c2.174-2.225,3.1-6.832,3.1-6.832" transform="translate(-805.6 -3046.127)"/><path class="a" d="M909.067,3137.6s1.863,5.589,10.143,5.382,8.9-5.382,8.9-5.382a8.178,8.178,0,0,0,2.277,2.07,20.63,20.63,0,0,0,3.726,1.656" transform="translate(-888.987 -3073.635)"/><path class="a" d="M837.864,2967a9.375,9.375,0,0,0,.543,4.037c.776,1.864,3.8,1.475,3.8,1.475" transform="translate(-831.576 -2936.143)"/><path class="a" d="M1593.2,3709.131c11.408-.126,11.3-9.465,11.032-11.91s-.5-2.758-1.88-5.266a24.742,24.742,0,0,0-3.636-4.764s.376-4.012-1-6.144-4.513-2.382-4.513-2.382" transform="translate(-1532.042 -3621.354)"/><path class="a" d="M1594.9,3679.917a15.866,15.866,0,0,1,1.482-3.056,24.758,24.758,0,0,1,3.636-4.764s-.376-4.012,1-6.143,4.513-2.382,4.513-2.382l2.772-4.639" transform="translate(-1544.39 -3606.259)"/><path class="a" d="M1495.23,3757.4H1478.3v6.958h31.318V3757.4Z" transform="translate(-1445.709 -3683.695)"/><path class="a" d="M1489,3748.2v3.526" transform="translate(-1449.985 -3674.543)"/><path class="a" d="M1489,3748.2v3.526" transform="translate(-1435.88 -3674.543)"/><path class="a" d="M1489,3748.2v3.526" transform="translate(-1445.284 -3674.543)"/><path class="a" d="M1489,3748.2v3.526" transform="translate(-1431.179 -3674.543)"/><path class="a" d="M1489,3748.2v3.526" transform="translate(-1440.582 -3674.543)"/><path class="a" d="M1547.9,3778a14.374,14.374,0,0,0,4.313,5.336,13.889,13.889,0,0,0,6.535,1.834" transform="translate(-1497.39 -3697.338)"/><path class="a" d="M1595,3808v3.881" transform="translate(-1532.045 -3720.282)"/></g></svg>