<svg xmlns="http://www.w3.org/2000/svg" xmlns:xlink="http://www.w3.org/1999/xlink" width="442.189" height="736.136" viewBox="0 0 442.189 736.136"><defs><style>.a{fill:#f09b9b;}.b{fill:#e06e7e;}.c{fill:#386596;}.d{fill:#718ca9;}.e{fill:#416a96;}.f{fill:#58799c;}.g{fill:url(#a);}.h{fill:url(#b);}.i{fill:none;stroke:#e06e7e;stroke-linecap:round;stroke-width:3px;}.j{fill:#8a4e53;}.k{fill:#194e2f;}.l{fill:#3c3c3c;}.m{fill:#313030;}.n{fill:url(#c);}.o,.q{fill:#fff;}.p{fill:#315e90;}.q{font-size:104px;font-family:GothamPro-Black, Gotham Pro;font-weight:800;}</style><linearGradient id="a" x1="0.865" y1="-0.184" x2="0.766" y2="1.164" gradientUnits="objectBoundingBox"><stop offset="0" stop-color="#767676"/><stop offset="1"/></linearGradient><linearGradient id="b" x1="0.709" y1="0.439" x2="1.081" y2="1.087" gradientUnits="objectBoundingBox"><stop offset="0" stop-color="#474747"/><stop offset="1"/></linearGradient><linearGradient id="c" x1="0.256" y1="1" x2="1.478" y2="-1.89" gradientUnits="objectBoundingBox"><stop offset="0" stop-color="#302f2f"/><stop offset="1" stop-color="#747474"/></linearGradient></defs><g transform="translate(-112.45 105.253)"><g transform="translate(119.079 57.273)"><path class="a" d="M184.265,160.929c-1.141,11.9-.411,34.223,14.008,33.188,0,0,20.748,60.343,60.687,67.174,34.441-6.314,55.5-60.964,57.056-66.139,4.772,1.656,17.416-18.254,7.249-36.264-2.9-5.175-10.569-3.275-10.569-3.275V144.929c-54.462,5.279-89.858-37.187-89.858-37.187-20.213,20.146-24.98,20.857-27.262,48.907,0,0-1.138-1.056-5.392-1.16a7.806,7.806,0,0,0-4.524,2.253A4.4,4.4,0,0,0,184.265,160.929Z" transform="translate(-109.535 -56.015)"/><path class="b" d="M-6570.44,9251.16a99.66,99.66,0,0,1,8.96-23.2c6.32-11.479,16.319-12.32,16.319-12.32s11.4,7.28,33.92,17.761c18.872,8.782,52.306,13.633,52.306,13.633l3.854,13.733s1.743-5.3,5.08-5.6,8.267,4.4,8.267,4.4l-13.347-29.846-90.08-34.561-32.479,34.561-1.984,19.93a6.325,6.325,0,0,0-2.8,1.824,6.954,6.954,0,0,0-1.3,3.95,5.942,5.942,0,0,1,4.523-2.9c3.19-.32,8.76,1.6,8.76,1.6Z" transform="translate(6658.37 -9149.606)"/><path class="a" d="M229.562,238.653l-7.245,36.227-24.117,8.28,14.284,225.225,88.455-30.3,7.6-199.164-15.422-4.865L285.247,237.1l-55.685,1.553Z" transform="translate(-108.979 -50.972)"/><path class="c" d="M299.031,275.5l73.659,20.453c18.113,5.589,33.782,18.614,34.3,37.866l-3.58,97.635a136.746,136.746,0,0,0-23.36,7.52,293.9,293.9,0,0,0-27.56,13.961l1.533-47.248L341.89,460.634l-87.9,59.654V345.92l10-23.067,24.6-19.933Z" transform="translate(-107.031 -49.626)"/><path class="b" d="M-6469.125,9374.125a119.158,119.158,0,0,1-10.086,19.975c-6.921,11.193-19.2,24.8-19.2,24.8l19.2-14,12.331-30.167Z" transform="translate(6658.37 -9149.606)"/><g transform="translate(0 225.149)"><path class="d" d="M298.407,275s1.688-2.414,4.08,1.677c1.285,2.191,2.08,3.04,5.132,16.261,4.628,21.02-16.632,46.449-16.632,46.449l-13-22.8-15.6,11,1.1-5.05s4.079-3.346,9.258-8.267c4.639-4.409,10.329-10.318,13.942-15.733A119.47,119.47,0,0,0,298.407,275Z" transform="translate(-107.027 -274.793)"/><path class="e" d="M222.129,274.8l-77,21.178c-18.217,5.279-25.839,19.148-26.667,38.4,0,0-11.933,132.533-12.733,152.533s0,136.35,0,136.35l45.833-30.6,6.433-100.682,8.865-71.651V582.56l92.015-62.144V343.144l-2.713-20.8-18.2-19L222.129,274.8Z" transform="translate(-112 -274.8)"/><path class="f" d="M0,0H52a0,0,0,0,1,0,0V50a5,5,0,0,1-5,5H5a5,5,0,0,1-5-5V0A0,0,0,0,1,0,0Z" transform="translate(173.059 90.244)"/></g><path class="b" d="M-6537.155,9424.267l5.022-51.733s18.267,0,31.467-5.866,21.333-17.6,21.333-17.6l-2.277-10.717s-13.55,10.717-27.6,10.717-28.6-10.717-28.6-10.717l-7.669,35.65h-1.987Z" transform="translate(6658.37 -9149.606)"/><path class="a" d="M89.221,138.354s12.359,58.239,59.2,59.52,55.756-58.3,55.756-58.3Z"/><path class="d" d="M273.216,275s-1.688-2.414-4.08,1.677c-1.285,2.191-2.08,3.04-5.132,16.261-4.628,21.019,14.583,45.65,14.583,45.65l15.4-22.4,10.949,9.2V321s-.879-1.813-6.058-6.734c-4.639-4.409-10.329-10.318-13.942-15.733A119.47,119.47,0,0,1,273.216,275Z" transform="translate(-161.027 -49.644)"/><path class="g" d="M202.666,146.831s1.506,4.088-4.8,16.131a60.822,60.822,0,0,1-23.309,23.394h0c.766-1.151,4.229-3.779,3.375-4.812-.523-.636-2.4.59-5.3,0s-2.683-1.18-8.75-3.513-13.39-.94-13.39-.94v8.229s3.749.566,12.415,1.888,15.612-1.462,11.287-.851-7.131,6.708-10.676,9.265-4.565,1.132-7.886,2.958-3.212,1.391-5.141,1.391-12.142,22.516-1.751,21.58,27.252-.911,43.315-25.321c8.753-14.829,9.529-16.5,12.659-28.34,1.222-4.624,1.714-7.314,1.714-7.314l-.914-13.485" transform="translate(0 -22.325)"/><path class="h" d="M156.85,143.826s-.757,4.533,8.618,20.5,26.907,23.567,26.907,23.567-2.975.721-3.254-4.741c-.571-2.742,3.632.778,6.929,0,.889-.206,2.025-.976,7.225-3.109s13.838-1.29,13.838-1.29v7.885s-4.712,2.109-12.913,2.457-11.825-1.2-11.825-1.2,3.717,2.518,7.613,5.088c2.19,1.444,2.779,3.157,5.019,4.778s4.729,1.818,6.328,2.622c3.65,1.836,4.328,1.166,6.449,1.166,1.249.333,12.716,20.867,1.382,21.6s-29.655-.857-47.312-25.388c-9.621-14.9-12.808-23.561-16.248-35.465a53.977,53.977,0,0,1-1.486-11.313v-7.151" transform="translate(-66.491 -23.983)"/><path class="i" d="M141.359,133.844s2.684-3,5.531-3,5.856,3,5.856,3" transform="translate(2.613 12)"/></g><g transform="translate(-239.735 -148.921)"><g transform="translate(519.572 300.054) rotate(-8)"><g transform="translate(0 0)"><path class="j" d="M1023.868,504.152a2.15,2.15,0,0,1-1.182-.352c-9.708-6.276-21.058-4.124-21.167-4.1a2.181,2.181,0,0,1-.861-4.275c.532-.111,13.163-2.556,24.391,4.71a2.18,2.18,0,0,1-1.182,4.013Z" transform="translate(-998.91 -494.945)"/></g></g><g transform="translate(475.022 310.754)"><ellipse class="k" cx="5.813" cy="7.865" rx="5.813" ry="7.865" transform="translate(0 0)"/></g><g transform="translate(527.007 311.842)"><ellipse class="k" cx="5.813" cy="7.865" rx="5.813" ry="7.865" transform="translate(0 0)"/></g><g transform="translate(466.861 294.833) rotate(10)"><g transform="translate(0 0)"><path class="j" d="M931.95,504.151a2.182,2.182,0,0,1-1.187-4.013c11.236-7.266,23.861-4.826,24.391-4.71a2.181,2.181,0,0,1-.862,4.276c-.111-.031-11.458-2.187-21.161,4.1A2.169,2.169,0,0,1,931.95,504.151Z" transform="translate(-929.766 -494.942)"/></g></g></g><path class="l" d="M189.4,157.286l7.142.725c.246-3.517.419,22.854,1.353,19.416h2.4s-.32-28.013,4.64-41.293,12.72-16.027,17.76-16.627,9.353.233,17.013,5.16,6.133,4.8,14.667,11.467,33.576,13.193,58.2,10.8v35.331c.947-.909,3.485,0,3.485,0s.407-20.9,2.737-22.05,4.946.583,6.519,3.15h0s10.264-33.851-3.361-61.687c-.378-.625,3.036,4.938,2.3,1.467-1.28-6.079-11.062-12.5-12.618-14.024C305.715,83.318,297.5,78.661,286.5,76.267c-2.6-.566,9.92,2.72,6.08,0s-19.867-3.773-22.679-4.116C227.028,66.927,220.778,86,220.778,86a40.242,40.242,0,0,0-26.667,19.066C184.544,121.6,189.4,157.286,189.4,157.286Z" transform="translate(8.961)"/><path class="m" d="M748.75,9368.55a58.622,58.622,0,0,0,8.517-9.517,62.343,62.343,0,0,0,6.021-11.533,140.886,140.886,0,0,1,.263,19.65,113.176,113.176,0,0,1-2.8,16.8s-3.55-5.15-6.617-2.35c-2.533,2.8-2.133,21.732-2.133,21.732h-3.25v-35.467" transform="translate(-426.861 -9221.333)"/><path class="n" d="M656,9307.96s-3.35,12.03-.84,20.36,10.88,12.959,10.88,12.959-14.6-4.7-22.14,9.671-8,47.8-8,47.8h-2.6l-.437-16.138s.063-2.812-1.812-3.362a49.145,49.145,0,0,0-5.9-1s-3.6-32.357,4.117-49.93S656,9307.96,656,9307.96Z" transform="translate(-426.861 -9221.333)"/><rect class="c" width="50" height="8" transform="translate(293.139 373.667)"/><g transform="translate(332.139 43.981)"><rect class="l" width="60.804" height="58" rx="29" transform="translate(22 -3)"/><path class="o" d="M66.894,29.869c-3.781-.159-8.969-.869-12.428-2.325C56.994,17.284,58.381,0,47.6,0c-5.816,0-7.347,5.212-8.853,10.4-4.838,16.675-12.331,21.3-20,23.128V31.25H0v37.5H18.75V65.925c7.431.713,12.872,2.7,19.278,5.456A41.445,41.445,0,0,0,54.7,75c7.931,0,13.422-3.116,15.653-11.519C71.919,57.616,75,40.825,75,37.7,75,32.55,71.35,30.056,66.894,29.869ZM12.5,62.5H6.25v-25H12.5ZM62.175,45.053s.628.031,3.341-.084c3.381-.144,3.284,4.591.012,4.884l-5.5.309a1.845,1.845,0,0,0,.441,3.663s2.144-.053,3.572-.128c3.338-.175,3.175,4.466.125,4.847-1.325.166-5.453.359-5.453.359a1.8,1.8,0,1,0,.341,3.566l2.409-.1c2.569-.231,3.134,2.578-.913,5.191-4.9,2.753-14.641.409-20.05-1.919-7-3.016-13.869-6.044-21.747-6.269V40.625c10.2-2.341,19.775-7.044,26-28.478C47.559,2.484,50,6.112,50,13.941c0,6.472-1.531,11.831-2.878,17.291a51.127,51.127,0,0,0,19.125,4.863c3.3.184,3.2,4.547-.159,4.95l-4.356.522S59.831,45.037,62.175,45.053Z" transform="translate(114 -93.736)"/></g><path class="f" d="M-.067-24.333,3.133-2.2,11.4-20.6l2-.8L5.267-3,5.36,171.359.24,174.4,1-3-1.267-23.4Z" transform="translate(263.139 354.981)"/><circle class="p" cx="3" cy="3" r="3" transform="translate(263.139 362.981)"/><circle class="p" cx="3" cy="3" r="3" transform="translate(263.139 415.981)"/><circle class="p" cx="3" cy="3" r="3" transform="translate(263.139 468.981)"/><path class="p" d="M3,0A3,3,0,0,1,6,3C6,4.657,4.55,5.034,3,6A3,3,0,0,1,3,0Z" transform="translate(263.139 521.981)"/><g transform="translate(390.848 -105.253)"><circle class="l" cx="81.27" cy="81.27" r="81.27" transform="translate(1.251 0)"/><text class="q" transform="translate(52.899 115.229)"><tspan x="0" y="0">?</tspan></text></g></g></svg>