<svg xmlns="http://www.w3.org/2000/svg" xmlns:xlink="http://www.w3.org/1999/xlink" width="519" height="918" viewBox="0 0 519 918"><defs><style>.a{fill:#fff;stroke:#707070;}.b{clip-path:url(#a);}.c{fill:#ffe2d8;}</style><clipPath id="a"><rect class="a" width="519" height="918" transform="translate(0 1725.783)"/></clipPath></defs><g class="b" transform="translate(0 -1725.783)"><path class="c" d="M723.867,0a50,50,0,0,1,41.738,22.469L982.886,351.883a50,50,0,0,1,0,55.061L765.605,736.357a50,50,0,0,1-41.738,22.469H277.179a50,50,0,0,1-41.738-22.469L18.159,406.944a50,50,0,0,1,0-55.061L235.441,22.469A50,50,0,0,1,277.179,0Z" transform="translate(-542.94 2083.274) rotate(-28)"/></g></svg>