<svg xmlns="http://www.w3.org/2000/svg" width="70.432" height="92.855" viewBox="0 0 70.432 92.855"><defs><style>.a{fill:none;stroke:#fff;stroke-width:2.5px;}</style></defs><g transform="translate(1.263 1.255)"><path class="a" d="M861.287,2925.114s-3.757,26.53,17.906,26.53,18.736-29.031,18.736-29.031-3.659.7-6.05-1.025-3.513-5.855-3.513-5.855a33.028,33.028,0,0,1-9.173,5.855,48.17,48.17,0,0,1-11.905,2.732" transform="translate(-842.648 -2890.294)"/><path class="a" d="M942.227,2840.4v-15.418s-1.708-7.27-5.465-11.515A19.678,19.678,0,0,0,927.2,2808H913.147a10.489,10.489,0,0,0-2.049.4,2.334,2.334,0,0,0-1.1.732" transform="translate(-882.651 -2802.273)"/><path class="a" d="M805.6,3135.279v-10.734s.732-5.221,4.294-8.392,9.953-4.294,9.953-4.294a7.633,7.633,0,0,0,5.269-1.951c2.049-2.1,2.927-6.441,2.927-6.441" transform="translate(-797.353 -3043.679)"/><path class="a" d="M909.067,3137.6s1.756,5.27,9.563,5.074,8.392-5.074,8.392-5.074a7.706,7.706,0,0,0,2.147,1.952,19.415,19.415,0,0,0,3.513,1.561" transform="translate(-881.889 -3071.566)"/><path class="a" d="M1080.8,3165.333a11.189,11.189,0,0,1,5.27,6.831c1.366,4.928.976,12.1.976,12.1" transform="translate(-1022.2 -3094.225)"/><path class="a" d="M1069.308,2951.6s3.952.708,6.05,2.83a10.09,10.09,0,0,1,2.342,5.66v19.029a22.566,22.566,0,0,1-7.221-.976,12.16,12.16,0,0,1-4.879-3.513" transform="translate(-1009.782 -2919.598)"/><g transform="translate(-10.998)"><path class="a" d="M206.4,3757.6v10.539" transform="translate(-169.647 -3678.393)"/><path class="a" d="M0,0V10.539" transform="translate(42.023 84.477) rotate(90)"/></g><path class="a" d="M837.862,2967a8.838,8.838,0,0,0,.512,3.806c.732,1.757,3.586,1.391,3.586,1.391" transform="translate(-823.687 -2932.181)"/><path class="a" d="M10.371,3332.23s.342-2.732,1.659-4a5.232,5.232,0,0,1,3.611-1.073s.659-2.22,1.952-2.439,3.22,1.561,3.22,1.561,2.049-1.1,3.318-.878,1.756,1.756,1.756,1.756,3.586.244,5.465,1.659a5.988,5.988,0,0,1,2.049,4s1.683.781,1.952,1.854-.878,2.439-.878,2.439a4.014,4.014,0,0,1,2.049,2.244,6.575,6.575,0,0,1-.683,3.513,16.444,16.444,0,0,1-.488,6.147,7.69,7.69,0,0,1-3.123,3.708,7.487,7.487,0,0,1-1.756,3.806,6.7,6.7,0,0,1-3.806,1.366,4.938,4.938,0,0,1-2.537,1.951,5.87,5.87,0,0,1-3.318-.683,3.716,3.716,0,0,1-2.537.683c-1.1-.317-1.854-1.951-1.854-1.951a13.931,13.931,0,0,1-5.367-1.952,6.846,6.846,0,0,1-2.342-3.9s-1.561-.634-1.854-1.757a4.525,4.525,0,0,1,.683-2.732,3.577,3.577,0,0,1-1.952-2.147,7.3,7.3,0,0,1,.683-3.611s.244-4.733,1.269-7.124S10.371,3332.23,10.371,3332.23Z" transform="translate(-5.527 -3324.697)"/><path class="a" d="M86.214,3332.866a7.652,7.652,0,0,1,.5,2.635,10.3,10.3,0,0,1-.5,3.123c-.236.878-.982.793-.919,2.537s1.171,2.391,1.171,4.44-1.012,1.939-1.171,3.757a8.5,8.5,0,0,0,.537,3.513A4.479,4.479,0,0,1,87,3355.6c0,1.512-1.269,2.2-1.171,3.318s.783.9.878,2.586a18.037,18.037,0,0,1-.5,4.147" transform="translate(-70.681 -3331.371)"/><path class="a" d="M91,3382.3a5.37,5.37,0,0,0,3.092,0,4.909,4.909,0,0,0,2.049-2.2" transform="translate(-75.361 -3369.963)"/><path class="a" d="M91,3382.3a5.37,5.37,0,0,0,3.092,0,4.909,4.909,0,0,0,2.049-2.2" transform="translate(-80.118 -3354.96)"/><path class="a" d="M0,2.2a9.469,9.469,0,0,0,4.128,0A5.685,5.685,0,0,0,6.864,0" transform="translate(27.114 21.335) rotate(90)"/><path class="a" d="M0,2.2a9.469,9.469,0,0,0,4.128,0A5.685,5.685,0,0,0,6.864,0" transform="matrix(0.391, -0.921, 0.921, 0.391, 2.389, 12.813)"/><path class="a" d="M0,.244a4.555,4.555,0,0,1,2.843,0,4.806,4.806,0,0,1,1.884,2.2" transform="matrix(0.946, -0.326, 0.326, 0.946, 4.855, 12.233)"/><path class="a" d="M0,.244a4.555,4.555,0,0,1,2.843,0,4.806,4.806,0,0,1,1.884,2.2" transform="matrix(0.946, -0.326, 0.326, 0.946, 23.884, 8.391)"/></g></svg>