<svg xmlns="http://www.w3.org/2000/svg" width="22.807" height="18.535" viewBox="0 0 22.807 18.535"><defs><style>.a{fill:#3c3c3c;}</style></defs><path class="a" d="M22.807,4.442a9.342,9.342,0,0,1-2.687.736A4.687,4.687,0,0,0,22.177,2.59a9.373,9.373,0,0,1-2.972,1.136,4.682,4.682,0,0,0-7.974,4.267A13.283,13.283,0,0,1,1.588,3.1,4.685,4.685,0,0,0,3.035,9.351,4.659,4.659,0,0,1,.917,8.766,4.683,4.683,0,0,0,4.67,13.413a4.69,4.69,0,0,1-2.113.08,4.683,4.683,0,0,0,4.371,3.249A9.408,9.408,0,0,1,0,18.68a13.246,13.246,0,0,0,7.173,2.1,13.233,13.233,0,0,0,13.3-13.918,9.526,9.526,0,0,0,2.335-2.422Z" transform="translate(0 -2.248)"/></svg>