<svg xmlns="http://www.w3.org/2000/svg" width="81.357" height="101.3" viewBox="0 0 81.357 101.3"><defs><style>.a,.c{fill:none;}.a{stroke:#fff;stroke-width:2.5px;}.b{stroke:none;}</style></defs><g transform="translate(1.25 9.7)"><path class="a" d="M861.778,2929.776s-2.546,23.593,18.517,24.047,18.443-18.926,18.443-18.926" transform="translate(-850.28 -2894.826)"/><path class="a" d="M805.6,3137.209v-11.385s.776-5.538,4.554-8.9,10.557-4.554,10.557-4.554a8.1,8.1,0,0,0,5.589-2.07c2.174-2.225,3.1-6.832,3.1-6.832" transform="translate(-805.6 -3046.127)"/><path class="a" d="M909.067,3137.6s1.863,5.589,10.143,5.382,8.9-5.382,8.9-5.382a8.178,8.178,0,0,0,2.277,2.07,20.63,20.63,0,0,0,3.726,1.656" transform="translate(-888.987 -3073.635)"/><path class="a" d="M837.864,2967a9.375,9.375,0,0,0,.543,4.037c.776,1.864,3.8,1.475,3.8,1.475" transform="translate(-831.576 -2936.143)"/><path class="a" d="M1595,3808v3.881" transform="translate(-1532.045 -3720.282)"/><g transform="translate(1.779 -8.45)"><path class="a" d="M62.223,30.562a4.916,4.916,0,0,0-2.231-4.182,4.748,4.748,0,0,0,.836-4.74,4.6,4.6,0,0,0-3.346-3.067,4.878,4.878,0,0,0-.558-4.74,5.386,5.386,0,0,0-4.182-1.952A4.691,4.691,0,0,0,50.791,7.7a4.8,4.8,0,0,0-4.74-.558,4.188,4.188,0,0,0-3.067-3.346,5.7,5.7,0,0,0-4.74.836A4.587,4.587,0,0,0,34.062,2.4a4.916,4.916,0,0,0-4.182,2.231,4.748,4.748,0,0,0-4.74-.836A4.6,4.6,0,0,0,22.072,7.14a4.878,4.878,0,0,0-4.74.558A5.386,5.386,0,0,0,15.38,11.88a4.624,4.624,0,0,0-5.019,4.74A8.142,8.142,0,0,0,9.8,19.13a4.9,4.9,0,0,0-2.509,2.788,5.7,5.7,0,0,0,.836,4.74A4.587,4.587,0,0,0,5.9,30.841a4.916,4.916,0,0,0,2.231,4.182,4.748,4.748,0,0,0-.836,4.74A4.6,4.6,0,0,0,10.64,42.83a4.878,4.878,0,0,0,.558,4.74c.279.558.836.836,1.394,1.394h1.952a57.468,57.468,0,0,1,2.788-10.317c.558-1.673,1.394-3.346,1.952-5.019a8.473,8.473,0,0,0,1.952-1.394,4.876,4.876,0,0,0,6.413,3.346l.836.836a3.708,3.708,0,0,0,2.231.836,3.254,3.254,0,0,0,1.673,1.673c.279.279.558.279,1.115.558a4.45,4.45,0,0,0,2.231,3.9,3.856,3.856,0,0,0,3.346.836,5.245,5.245,0,0,0,1.673,6.692,5.536,5.536,0,0,0,5.855,0l.279.279a5.483,5.483,0,0,0,6.971-.836,4.8,4.8,0,0,0,3.9-2.231,5.7,5.7,0,0,0,.279-5.577,4.385,4.385,0,0,0,2.788-3.067,5.7,5.7,0,0,0-.836-4.74A4.916,4.916,0,0,0,62.223,30.562Z" transform="translate(-5.9 -2.4)"/></g><g transform="translate(3 1)"><path class="a" d="M53.392,74.211c1.467-2.305,2.154-4.894,6.421-5.028,3.829.054,4.729,3.454,6.029,5.554s4.6,4.8,1.6,8.313-4.65.438-7.629.337-4.946,2.875-8.133-.337S51.925,76.517,53.392,74.211Z"/><g class="a" transform="translate(60.779 55.55)"><ellipse class="b" cx="4" cy="5.5" rx="4" ry="5.5"/><ellipse class="c" cx="4" cy="5.5" rx="2.75" ry="4.25"/></g><g class="a" transform="matrix(0.94, 0.342, -0.342, 0.94, 70.529, 63.624)"><ellipse class="b" cx="3.5" cy="4.5" rx="3.5" ry="4.5"/><ellipse class="c" cx="3.5" cy="4.5" rx="2.25" ry="3.25"/></g><g class="a" transform="translate(52.107 72.081) rotate(160)"><ellipse class="b" cx="3.5" cy="4.5" rx="3.5" ry="4.5"/><ellipse class="c" cx="3.5" cy="4.5" rx="2.25" ry="3.25"/></g><g class="a" transform="translate(50.779 55.55)"><ellipse class="b" cx="4" cy="5.5" rx="4" ry="5.5"/><ellipse class="c" cx="4" cy="5.5" rx="2.75" ry="4.25"/></g></g><g transform="translate(-19.317 1.653)"><path class="a" d="M206.4,3757.6v10.539" transform="translate(-169.647 -3678.393)"/><path class="a" d="M0,0V10.539" transform="translate(42.023 84.477) rotate(90)"/></g></g></svg>